<svg width="1000" height="1200" version="1.1" xmlns="http://www.w3.org/2000/svg">
<g transform="translate(500, 600) scale(1,1)">
<text text-anchor="middle" 
  transform="translate(-107, 261) 
  rotate(315)
  scale(1,1)"
  style="font-size: 124px; font-family: Alfarn; weight: normal; fill: rgb(128, 0, 0);">
  ?
  </text>

<text text-anchor="middle" 
  transform="translate(-133, 99) 
  rotate(270)
  scale(1,1)"
  style="font-size: 123px; font-family: ZubiloLined; weight: normal; fill: rgb(128, 0, 128);">
  ?
  </text>

<text text-anchor="middle" 
  transform="translate(50, 77) 
  rotate(0)
  scale(1,1)"
  style="font-size: 123px; font-family: Chalkduster; weight: normal; fill: rgb(0, 128, 0);">
  ?
  </text>

<text text-anchor="middle" 
  transform="translate(-242, 288) 
  rotate(90)
  scale(1,1)"
  style="font-size: 122px; font-family: P22Stanyan; weight: normal; fill: rgb(0, 128, 0);">
  ?
  </text>

<text text-anchor="middle" 
  transform="translate(-13, 170) 
  rotate(0)
  scale(1,1)"
  style="font-size: 121px; font-family: FlowerPower; weight: normal; fill: rgb(0, 128, 0);">
  ?
  </text>

<text text-anchor="middle" 
  transform="translate(97, -113) 
  rotate(315)
  scale(1,1)"
  style="font-size: 117px; font-family: WTRGothicOpenShaded; weight: normal; fill: rgb(0, 128, 0);">
  ?
  </text>

<text text-anchor="middle" 
  transform="translate(-73, -264) 
  rotate(225)
  scale(1,1)"
  style="font-size: 117px; font-family: WTRGothicOpenShaded; weight: normal; fill: rgb(0, 0, 128);">
  ?
  </text>

<text text-anchor="middle" 
  transform="translate(-96, 196) 
  rotate(0)
  scale(1,1)"
  style="font-size: 115px; font-family: RigSolid; weight: normal; fill: rgb(128, 0, 128);">
  ?
  </text>

<text text-anchor="middle" 
  transform="translate(-206, -273) 
  rotate(45)
  scale(1,1)"
  style="font-size: 115px; font-family: Alfarn; weight: normal; fill: rgb(128, 0, 128);">
  ?
  </text>

<text text-anchor="middle" 
  transform="translate(187, -26) 
  rotate(225)
  scale(1,1)"
  style="font-size: 114px; font-family: Shlop; weight: normal; fill: rgb(128, 0, 0);">
  ?
  </text>

<text text-anchor="middle" 
  transform="translate(229, 228) 
  rotate(225)
  scale(1,1)"
  style="font-size: 114px; font-family: StencilStd; weight: normal; fill: rgb(128, 0, 128);">
  ?
  </text>

<text text-anchor="middle" 
  transform="translate(28, 189) 
  rotate(45)
  scale(1,1)"
  style="font-size: 112px; font-family: Abolition; weight: normal; fill: rgb(0, 128, 0);">
  ?
  </text>

<text text-anchor="middle" 
  transform="translate(0, -292) 
  rotate(45)
  scale(1,1)"
  style="font-size: 111px; font-family: Victorious; weight: normal; fill: rgb(0, 128, 128);">
  ?
  </text>

<text text-anchor="middle" 
  transform="translate(-168, 164) 
  rotate(270)
  scale(1,1)"
  style="font-size: 110px; font-family: PeacockDeep-Bold; weight: normal; fill: rgb(128, 0, 128);">
  ?
  </text>

<text text-anchor="middle" 
  transform="translate(-153, 61) 
  rotate(90)
  scale(1,1)"
  style="font-size: 110px; font-family: PulpoRust-100; weight: normal; fill: rgb(128, 0, 0);">
  ?
  </text>

<text text-anchor="middle" 
  transform="translate(-111, -109) 
  rotate(315)
  scale(1,1)"
  style="font-size: 108px; font-family: Chuck; weight: normal; fill: rgb(0, 0, 128);">
  ?
  </text>

<text text-anchor="middle" 
  transform="translate(218, 277) 
  rotate(135)
  scale(1,1)"
  style="font-size: 108px; font-family: Chinchilla; weight: normal; fill: rgb(0, 128, 128);">
  ?
  </text>

<text text-anchor="middle" 
  transform="translate(174, 50) 
  rotate(225)
  scale(1,1)"
  style="font-size: 107px; font-family: Decorative; weight: normal; fill: rgb(0, 0, 128);">
  ?
  </text>

<text text-anchor="middle" 
  transform="translate(249, 251) 
  rotate(45)
  scale(1,1)"
  style="font-size: 107px; font-family: BlowUp; weight: normal; fill: rgb(128, 0, 128);">
  ?
  </text>

<text text-anchor="middle" 
  transform="translate(173, 134) 
  rotate(180)
  scale(1,1)"
  style="font-size: 107px; font-family: RigSolid; weight: normal; fill: rgb(0, 128, 0);">
  ?
  </text>

<text text-anchor="middle" 
  transform="translate(261, 153) 
  rotate(315)
  scale(1,1)"
  style="font-size: 106px; font-family: blzee; weight: normal; fill: rgb(0, 128, 0);">
  ?
  </text>

<text text-anchor="middle" 
  transform="translate(-282, 320) 
  rotate(0)
  scale(1,1)"
  style="font-size: 105px; font-family: Quast; weight: normal; fill: rgb(128, 0, 0);">
  ?
  </text>

<text text-anchor="middle" 
  transform="translate(-231, -188) 
  rotate(45)
  scale(1,1)"
  style="font-size: 104px; font-family: Abolition; weight: normal; fill: rgb(128, 128, 0);">
  ?
  </text>

<text text-anchor="middle" 
  transform="translate(31, 235) 
  rotate(135)
  scale(1,1)"
  style="font-size: 104px; font-family: Victorious; weight: normal; fill: rgb(0, 0, 128);">
  ?
  </text>

<text text-anchor="middle" 
  transform="translate(-24, 268) 
  rotate(225)
  scale(1,1)"
  style="font-size: 103px; font-family: WTRGothicOpenShaded; weight: normal; fill: rgb(0, 0, 128);">
  ?
  </text>

<text text-anchor="middle" 
  transform="translate(-81, -169) 
  rotate(45)
  scale(1,1)"
  style="font-size: 100px; font-family: ZubiloLined; weight: normal; fill: rgb(0, 128, 0);">
  ?
  </text>

<text text-anchor="middle" 
  transform="translate(-71, 14) 
  rotate(90)
  scale(1,1)"
  style="font-size: 100px; font-family: AdornCopperplate; weight: normal; fill: rgb(128, 128, 0);">
  ?
  </text>

<text text-anchor="middle" 
  transform="translate(-6, 302) 
  rotate(180)
  scale(1,1)"
  style="font-size: 100px; font-family: BlowUp; weight: normal; fill: rgb(128, 128, 0);">
  ?
  </text>

<text text-anchor="middle" 
  transform="translate(-104, -282) 
  rotate(45)
  scale(1,1)"
  style="font-size: 98px; font-family: IM_FELL_DW_Pica_Romanz; weight: normal; fill: rgb(128, 0, 0);">
  ?
  </text>

<text text-anchor="middle" 
  transform="translate(120, -263) 
  rotate(225)
  scale(1,1)"
  style="font-size: 96px; font-family: Chalkduster; weight: normal; fill: rgb(0, 0, 128);">
  ?
  </text>

<text text-anchor="middle" 
  transform="translate(-93, -11) 
  rotate(45)
  scale(1,1)"
  style="font-size: 96px; font-family: AdornCopperplate; weight: normal; fill: rgb(0, 128, 0);">
  ?
  </text>

<text text-anchor="middle" 
  transform="translate(193, 325) 
  rotate(180)
  scale(1,1)"
  style="font-size: 93px; font-family: Decorative; weight: normal; fill: rgb(0, 0, 128);">
  ?
  </text>

<text text-anchor="middle" 
  transform="translate(-163, 36) 
  rotate(0)
  scale(1,1)"
  style="font-size: 92px; font-family: WTRGothicOpenShaded; weight: normal; fill: rgb(128, 0, 0);">
  ?
  </text>

<text text-anchor="middle" 
  transform="translate(-186, -84) 
  rotate(225)
  scale(1,1)"
  style="font-size: 89px; font-family: PaintingWithChocolate; weight: normal; fill: rgb(0, 128, 128);">
  ?
  </text>

<text text-anchor="middle" 
  transform="translate(96, 435) 
  rotate(0)
  scale(1,1)"
  style="font-size: 89px; font-family: Victorious; weight: normal; fill: rgb(0, 128, 0);">
  ?
  </text>

<text text-anchor="middle" 
  transform="translate(-81, -367) 
  rotate(90)
  scale(1,1)"
  style="font-size: 89px; font-family: blzee; weight: normal; fill: rgb(128, 0, 128);">
  ?
  </text>

<text text-anchor="middle" 
  transform="translate(287, 70) 
  rotate(180)
  scale(1,1)"
  style="font-size: 87px; font-family: Abolition; weight: normal; fill: rgb(128, 128, 0);">
  ?
  </text>

<text text-anchor="middle" 
  transform="translate(237, -16) 
  rotate(180)
  scale(1,1)"
  style="font-size: 86px; font-family: blzee; weight: normal; fill: rgb(0, 128, 128);">
  ?
  </text>

<text text-anchor="middle" 
  transform="translate(162, -175) 
  rotate(270)
  scale(1,1)"
  style="font-size: 86px; font-family: StencilStd; weight: normal; fill: rgb(0, 0, 128);">
  ?
  </text>

<text text-anchor="middle" 
  transform="translate(-267, 337) 
  rotate(90)
  scale(1,1)"
  style="font-size: 85px; font-family: Blenny-Black; weight: normal; fill: rgb(0, 128, 0);">
  ?
  </text>

<text text-anchor="middle" 
  transform="translate(-298, 352) 
  rotate(135)
  scale(1,1)"
  style="font-size: 85px; font-family: ZubiloLined; weight: normal; fill: rgb(128, 128, 0);">
  ?
  </text>

<text text-anchor="middle" 
  transform="translate(42, -70) 
  rotate(270)
  scale(1,1)"
  style="font-size: 84px; font-family: ZubiloLined; weight: normal; fill: rgb(128, 0, 0);">
  ?
  </text>

<text text-anchor="middle" 
  transform="translate(146, -151) 
  rotate(180)
  scale(1,1)"
  style="font-size: 82px; font-family: FlowerPower; weight: normal; fill: rgb(128, 128, 0);">
  ?
  </text>

<text text-anchor="middle" 
  transform="translate(-237, 57) 
  rotate(45)
  scale(1,1)"
  style="font-size: 82px; font-family: PaintingWithChocolate; weight: normal; fill: rgb(128, 0, 0);">
  ?
  </text>

<text text-anchor="middle" 
  transform="translate(208, -246) 
  rotate(315)
  scale(1,1)"
  style="font-size: 80px; font-family: ColtSoft-Medium; weight: normal; fill: rgb(0, 0, 128);">
  ?
  </text>

<text text-anchor="middle" 
  transform="translate(89, -42) 
  rotate(90)
  scale(1,1)"
  style="font-size: 80px; font-family: NasalizationRg-Regular; weight: normal; fill: rgb(0, 128, 0);">
  ?
  </text>

<text text-anchor="middle" 
  transform="translate(-249, -166) 
  rotate(315)
  scale(1,1)"
  style="font-size: 79px; font-family: PulpoRust-100; weight: normal; fill: rgb(128, 0, 0);">
  ?
  </text>

<text text-anchor="middle" 
  transform="translate(171, -233) 
  rotate(135)
  scale(1,1)"
  style="font-size: 79px; font-family: WTRGothicOpenShaded; weight: normal; fill: rgb(0, 0, 128);">
  ?
  </text>

<text text-anchor="middle" 
  transform="translate(247, -283) 
  rotate(315)
  scale(1,1)"
  style="font-size: 76px; font-family: blzee; weight: normal; fill: rgb(0, 0, 128);">
  ?
  </text>

<text text-anchor="middle" 
  transform="translate(87, 198) 
  rotate(135)
  scale(1,1)"
  style="font-size: 75px; font-family: PulpoRust-100; weight: normal; fill: rgb(128, 0, 0);">
  ?
  </text>

<text text-anchor="middle" 
  transform="translate(-79, -115) 
  rotate(90)
  scale(1,1)"
  style="font-size: 74px; font-family: IM_FELL_DW_Pica_Romanz; weight: normal; fill: rgb(0, 0, 128);">
  ?
  </text>

<text text-anchor="middle" 
  transform="translate(-251, 116) 
  rotate(225)
  scale(1,1)"
  style="font-size: 74px; font-family: Abolition; weight: normal; fill: rgb(0, 128, 0);">
  ?
  </text>

<text text-anchor="middle" 
  transform="translate(258, -124) 
  rotate(225)
  scale(1,1)"
  style="font-size: 74px; font-family: Victorious; weight: normal; fill: rgb(0, 128, 0);">
  ?
  </text>

<text text-anchor="middle" 
  transform="translate(266, 379) 
  rotate(225)
  scale(1,1)"
  style="font-size: 71px; font-family: Abolition; weight: normal; fill: rgb(128, 0, 128);">
  ?
  </text>

<text text-anchor="middle" 
  transform="translate(292, -16) 
  rotate(315)
  scale(1,1)"
  style="font-size: 70px; font-family: PulpoRust-75; weight: normal; fill: rgb(0, 128, 0);">
  ?
  </text>

<text text-anchor="middle" 
  transform="translate(-40, 206) 
  rotate(225)
  scale(1,1)"
  style="font-size: 70px; font-family: NasalizationRg-Regular; weight: normal; fill: rgb(0, 0, 128);">
  ?
  </text>

<text text-anchor="middle" 
  transform="translate(235, -233) 
  rotate(90)
  scale(1,1)"
  style="font-size: 68px; font-family: Abolition; weight: normal; fill: rgb(128, 0, 0);">
  ?
  </text>

<text text-anchor="middle" 
  transform="translate(284, -85) 
  rotate(45)
  scale(1,1)"
  style="font-size: 67px; font-family: FlowerPower; weight: normal; fill: rgb(128, 128, 0);">
  ?
  </text>

<text text-anchor="middle" 
  transform="translate(120, -300) 
  rotate(45)
  scale(1,1)"
  style="font-size: 67px; font-family: WTRGothicOpenShaded; weight: normal; fill: rgb(128, 128, 0);">
  ?
  </text>

<text text-anchor="middle" 
  transform="translate(-114, 306) 
  rotate(180)
  scale(1,1)"
  style="font-size: 66px; font-family: Shlop; weight: normal; fill: rgb(128, 0, 0);">
  ?
  </text>

<text text-anchor="middle" 
  transform="translate(299, 9) 
  rotate(135)
  scale(1,1)"
  style="font-size: 64px; font-family: Quast; weight: normal; fill: rgb(0, 128, 128);">
  ?
  </text>

<text text-anchor="middle" 
  transform="translate(-229, -236) 
  rotate(315)
  scale(1,1)"
  style="font-size: 60px; font-family: Shlop; weight: normal; fill: rgb(0, 0, 128);">
  ?
  </text>

<text text-anchor="middle" 
  transform="translate(-46, 387) 
  rotate(135)
  scale(1,1)"
  style="font-size: 60px; font-family: WTRGothicOpenShaded; weight: normal; fill: rgb(0, 0, 128);">
  ?
  </text>

<text text-anchor="middle" 
  transform="translate(-175, 409) 
  rotate(0)
  scale(1,1)"
  style="font-size: 58px; font-family: Chalkduster; weight: normal; fill: rgb(128, 128, 0);">
  ?
  </text>

<text text-anchor="middle" 
  transform="translate(-201, -107) 
  rotate(315)
  scale(1,1)"
  style="font-size: 57px; font-family: ZubiloLined; weight: normal; fill: rgb(0, 128, 128);">
  ?
  </text>

<text text-anchor="middle" 
  transform="translate(-214, -331) 
  rotate(270)
  scale(1,1)"
  style="font-size: 56px; font-family: FlowerPower; weight: normal; fill: rgb(128, 128, 0);">
  ?
  </text>

<text text-anchor="middle" 
  transform="translate(-333, 202) 
  rotate(45)
  scale(1,1)"
  style="font-size: 55px; font-family: BlowUp; weight: normal; fill: rgb(128, 128, 0);">
  ?
  </text>

<text text-anchor="middle" 
  transform="translate(64, -95) 
  rotate(135)
  scale(1,1)"
  style="font-size: 55px; font-family: Phosphate; weight: normal; fill: rgb(0, 128, 0);">
  ?
  </text>

<text text-anchor="middle" 
  transform="translate(-266, -24) 
  rotate(135)
  scale(1,1)"
  style="font-size: 54px; font-family: Phosphate; weight: normal; fill: rgb(128, 128, 0);">
  ?
  </text>

<text text-anchor="middle" 
  transform="translate(-259, -116) 
  rotate(180)
  scale(1,1)"
  style="font-size: 54px; font-family: Blackcurrant-Black; weight: normal; fill: rgb(0, 128, 128);">
  ?
  </text>

<text text-anchor="middle" 
  transform="translate(-299, 53) 
  rotate(135)
  scale(1,1)"
  style="font-size: 53px; font-family: Quast; weight: normal; fill: rgb(0, 128, 0);">
  ?
  </text>

<text text-anchor="middle" 
  transform="translate(207, 157) 
  rotate(135)
  scale(1,1)"
  style="font-size: 53px; font-family: Shlop; weight: normal; fill: rgb(128, 0, 128);">
  ?
  </text>

<text text-anchor="middle" 
  transform="translate(-316, -52) 
  rotate(90)
  scale(1,1)"
  style="font-size: 53px; font-family: IM_FELL_DW_Pica_Romanz; weight: normal; fill: rgb(128, 128, 0);">
  ?
  </text>

<text text-anchor="middle" 
  transform="translate(310, -60) 
  rotate(135)
  scale(1,1)"
  style="font-size: 53px; font-family: blzee; weight: normal; fill: rgb(0, 128, 0);">
  ?
  </text>

<text text-anchor="middle" 
  transform="translate(281, 272) 
  rotate(90)
  scale(1,1)"
  style="font-size: 52px; font-family: Phosphate; weight: normal; fill: rgb(0, 128, 0);">
  ?
  </text>

<text text-anchor="middle" 
  transform="translate(336, 92) 
  rotate(180)
  scale(1,1)"
  style="font-size: 51px; font-family: AdornCopperplate; weight: normal; fill: rgb(128, 128, 0);">
  ?
  </text>

<text text-anchor="middle" 
  transform="translate(272, -282) 
  rotate(0)
  scale(1,1)"
  style="font-size: 49px; font-family: Blackcurrant-Black; weight: normal; fill: rgb(128, 0, 0);">
  ?
  </text>

<text text-anchor="middle" 
  transform="translate(23, -108) 
  rotate(315)
  scale(1,1)"
  style="font-size: 48px; font-family: AdornCopperplate; weight: normal; fill: rgb(128, 0, 128);">
  ?
  </text>

<text text-anchor="middle" 
  transform="translate(129, -361) 
  rotate(0)
  scale(1,1)"
  style="font-size: 48px; font-family: Blenny-Black; weight: normal; fill: rgb(0, 0, 128);">
  ?
  </text>

<text text-anchor="middle" 
  transform="translate(-290, -279) 
  rotate(45)
  scale(1,1)"
  style="font-size: 47px; font-family: BlowUp; weight: normal; fill: rgb(128, 128, 0);">
  ?
  </text>

<text text-anchor="middle" 
  transform="translate(-314, 6) 
  rotate(90)
  scale(1,1)"
  style="font-size: 45px; font-family: PeacockDeep-Bold; weight: normal; fill: rgb(0, 0, 128);">
  ?
  </text>

<text text-anchor="middle" 
  transform="translate(199, -358) 
  rotate(270)
  scale(1,1)"
  style="font-size: 45px; font-family: Shlop; weight: normal; fill: rgb(0, 0, 128);">
  ?
  </text>

<text text-anchor="middle" 
  transform="translate(-296, -132) 
  rotate(45)
  scale(1,1)"
  style="font-size: 43px; font-family: PulpoRust-25; weight: normal; fill: rgb(128, 128, 0);">
  ?
  </text>

<text text-anchor="middle" 
  transform="translate(-277, -330) 
  rotate(270)
  scale(1,1)"
  style="font-size: 41px; font-family: RigSolid; weight: normal; fill: rgb(128, 0, 128);">
  ?
  </text>

<text text-anchor="middle" 
  transform="translate(-301, 110) 
  rotate(225)
  scale(1,1)"
  style="font-size: 37px; font-family: WTRGothicOpenShaded; weight: normal; fill: rgb(0, 128, 0);">
  ?
  </text>

<text text-anchor="middle" 
  transform="translate(207, -399) 
  rotate(135)
  scale(1,1)"
  style="font-size: 37px; font-family: blzee; weight: normal; fill: rgb(0, 128, 128);">
  ?
  </text>

<text text-anchor="middle" 
  transform="translate(-287, -365) 
  rotate(90)
  scale(1,1)"
  style="font-size: 35px; font-family: Alfarn; weight: normal; fill: rgb(128, 0, 128);">
  ?
  </text>

<text text-anchor="middle" 
  transform="translate(17, -388) 
  rotate(0)
  scale(1,1)"
  style="font-size: 35px; font-family: blzee; weight: normal; fill: rgb(128, 0, 128);">
  ?
  </text>

<text text-anchor="middle" 
  transform="translate(243, -353) 
  rotate(90)
  scale(1,1)"
  style="font-size: 35px; font-family: PaintingWithChocolate; weight: normal; fill: rgb(128, 0, 0);">
  ?
  </text>

<text text-anchor="middle" 
  transform="translate(-62, 183) 
  rotate(45)
  scale(1,1)"
  style="font-size: 35px; font-family: PaintingWithChocolate; weight: normal; fill: rgb(128, 0, 0);">
  ?
  </text>

<text text-anchor="middle" 
  transform="translate(-114, 9) 
  rotate(225)
  scale(1,1)"
  style="font-size: 33px; font-family: BlowUp; weight: normal; fill: rgb(128, 128, 0);">
  ?
  </text>

<text text-anchor="middle" 
  transform="translate(-215, 234) 
  rotate(180)
  scale(1,1)"
  style="font-size: 32px; font-family: PulpoRust-75; weight: normal; fill: rgb(128, 128, 0);">
  ?
  </text>

<text text-anchor="middle" 
  transform="translate(244, -185) 
  rotate(0)
  scale(1,1)"
  style="font-size: 31px; font-family: AcierBATText-Gris; weight: normal; fill: rgb(0, 128, 128);">
  ?
  </text>

<text text-anchor="middle" 
  transform="translate(321, -155) 
  rotate(270)
  scale(1,1)"
  style="font-size: 28px; font-family: IM_FELL_DW_Pica_Romanz; weight: normal; fill: rgb(0, 128, 0);">
  ?
  </text>

<text text-anchor="middle" 
  transform="translate(99, 62) 
  rotate(45)
  scale(1,1)"
  style="font-size: 28px; font-family: FlowerPower; weight: normal; fill: rgb(0, 128, 128);">
  ?
  </text>

<text text-anchor="middle" 
  transform="translate(-271, 204) 
  rotate(0)
  scale(1,1)"
  style="font-size: 27px; font-family: PulpoRust-75; weight: normal; fill: rgb(128, 0, 128);">
  ?
  </text>

<text text-anchor="middle" 
  transform="translate(280, 40) 
  rotate(315)
  scale(1,1)"
  style="font-size: 26px; font-family: P22Stanyan; weight: normal; fill: rgb(128, 128, 0);">
  ?
  </text>

<text text-anchor="middle" 
  transform="translate(-73, 354) 
  rotate(180)
  scale(1,1)"
  style="font-size: 26px; font-family: Decorative; weight: normal; fill: rgb(0, 128, 128);">
  ?
  </text>

<text text-anchor="middle" 
  transform="translate(-31, -150) 
  rotate(0)
  scale(1,1)"
  style="font-size: 25px; font-family: AcierBATText-Gris; weight: normal; fill: rgb(0, 0, 128);">
  ?
  </text>

<text text-anchor="middle" 
  transform="translate(-199, -356) 
  rotate(315)
  scale(1,1)"
  style="font-size: 25px; font-family: BlowUp; weight: normal; fill: rgb(128, 0, 128);">
  ?
  </text>

</g>
</svg>
