<svg width="1000" height="1200" version="1.1" xmlns="http://www.w3.org/2000/svg">
<g transform="translate(500, 600) scale(1,1)">
<text text-anchor="middle" 
  transform="translate(176, 6) 
  rotate(225)
  scale(1,1)"
  style="font-size: 124px; font-family: Abolition; weight: normal; fill: rgb(128, 0, 128);">
  ?
  </text>

<text text-anchor="middle" 
  transform="translate(-29, 149) 
  rotate(0)
  scale(1,1)"
  style="font-size: 124px; font-family: blzee; weight: normal; fill: rgb(128, 0, 128);">
  ?
  </text>

<text text-anchor="middle" 
  transform="translate(126, 147) 
  rotate(45)
  scale(1,1)"
  style="font-size: 123px; font-family: Blenny-Black; weight: normal; fill: rgb(128, 128, 0);">
  ?
  </text>

<text text-anchor="middle" 
  transform="translate(-73, 293) 
  rotate(45)
  scale(1,1)"
  style="font-size: 123px; font-family: IM_FELL_DW_Pica_Romanz; weight: normal; fill: rgb(0, 128, 128);">
  ?
  </text>

<text text-anchor="middle" 
  transform="translate(230, -55) 
  rotate(45)
  scale(1,1)"
  style="font-size: 121px; font-family: PulpoRust-50; weight: normal; fill: rgb(0, 0, 128);">
  ?
  </text>

<text text-anchor="middle" 
  transform="translate(10, -152) 
  rotate(225)
  scale(1,1)"
  style="font-size: 121px; font-family: Shlop; weight: normal; fill: rgb(0, 128, 0);">
  ?
  </text>

<text text-anchor="middle" 
  transform="translate(-158, -244) 
  rotate(315)
  scale(1,1)"
  style="font-size: 121px; font-family: PulpoRust-100; weight: normal; fill: rgb(0, 128, 0);">
  ?
  </text>

<text text-anchor="middle" 
  transform="translate(89, 15) 
  rotate(45)
  scale(1,1)"
  style="font-size: 121px; font-family: Bauhaus93; weight: normal; fill: rgb(128, 0, 0);">
  ?
  </text>

<text text-anchor="middle" 
  transform="translate(-226, 233) 
  rotate(315)
  scale(1,1)"
  style="font-size: 118px; font-family: Shlop; weight: normal; fill: rgb(128, 0, 0);">
  ?
  </text>

<text text-anchor="middle" 
  transform="translate(-38, -55) 
  rotate(225)
  scale(1,1)"
  style="font-size: 116px; font-family: AdornCopperplate; weight: normal; fill: rgb(0, 128, 128);">
  ?
  </text>

<text text-anchor="middle" 
  transform="translate(-168, 224) 
  rotate(0)
  scale(1,1)"
  style="font-size: 116px; font-family: NasalizationRg-Regular; weight: normal; fill: rgb(128, 128, 0);">
  ?
  </text>

<text text-anchor="middle" 
  transform="translate(142, 286) 
  rotate(180)
  scale(1,1)"
  style="font-size: 114px; font-family: Decorative; weight: normal; fill: rgb(0, 0, 128);">
  ?
  </text>

<text text-anchor="middle" 
  transform="translate(185, -9) 
  rotate(135)
  scale(1,1)"
  style="font-size: 114px; font-family: Quast; weight: normal; fill: rgb(0, 128, 128);">
  ?
  </text>

<text text-anchor="middle" 
  transform="translate(255, 232) 
  rotate(225)
  scale(1,1)"
  style="font-size: 114px; font-family: PulpoRust-25; weight: normal; fill: rgb(128, 0, 128);">
  ?
  </text>

<text text-anchor="middle" 
  transform="translate(-126, 15) 
  rotate(180)
  scale(1,1)"
  style="font-size: 112px; font-family: PeacockDeep-Bold; weight: normal; fill: rgb(0, 0, 128);">
  ?
  </text>

<text text-anchor="middle" 
  transform="translate(307, 317) 
  rotate(225)
  scale(1,1)"
  style="font-size: 109px; font-family: Victorious; weight: normal; fill: rgb(128, 0, 128);">
  ?
  </text>

<text text-anchor="middle" 
  transform="translate(23, -229) 
  rotate(135)
  scale(1,1)"
  style="font-size: 109px; font-family: Chalkduster; weight: normal; fill: rgb(0, 128, 128);">
  ?
  </text>

<text text-anchor="middle" 
  transform="translate(222, 225) 
  rotate(315)
  scale(1,1)"
  style="font-size: 108px; font-family: blzee; weight: normal; fill: rgb(0, 0, 128);">
  ?
  </text>

<text text-anchor="middle" 
  transform="translate(79, -83) 
  rotate(270)
  scale(1,1)"
  style="font-size: 106px; font-family: NasalizationRg-Regular; weight: normal; fill: rgb(0, 128, 128);">
  ?
  </text>

<text text-anchor="middle" 
  transform="translate(48, 23) 
  rotate(180)
  scale(1,1)"
  style="font-size: 105px; font-family: IM_FELL_DW_Pica_Romanz; weight: normal; fill: rgb(128, 0, 0);">
  ?
  </text>

<text text-anchor="middle" 
  transform="translate(169, -139) 
  rotate(135)
  scale(1,1)"
  style="font-size: 104px; font-family: AcierBATText-Gris; weight: normal; fill: rgb(128, 0, 0);">
  ?
  </text>

<text text-anchor="middle" 
  transform="translate(-219, -55) 
  rotate(90)
  scale(1,1)"
  style="font-size: 104px; font-family: RigSolid; weight: normal; fill: rgb(0, 0, 128);">
  ?
  </text>

<text text-anchor="middle" 
  transform="translate(152, -197) 
  rotate(315)
  scale(1,1)"
  style="font-size: 102px; font-family: JohnDoe; weight: normal; fill: rgb(0, 0, 128);">
  ?
  </text>

<text text-anchor="middle" 
  transform="translate(43, -2) 
  rotate(270)
  scale(1,1)"
  style="font-size: 100px; font-family: FlowerPower; weight: normal; fill: rgb(128, 128, 0);">
  ?
  </text>

<text text-anchor="middle" 
  transform="translate(-187, 115) 
  rotate(270)
  scale(1,1)"
  style="font-size: 99px; font-family: Calder-LCGrit; weight: normal; fill: rgb(128, 128, 0);">
  ?
  </text>

<text text-anchor="middle" 
  transform="translate(341, -143) 
  rotate(315)
  scale(1,1)"
  style="font-size: 99px; font-family: Victorious; weight: normal; fill: rgb(0, 128, 128);">
  ?
  </text>

<text text-anchor="middle" 
  transform="translate(-128, 199) 
  rotate(90)
  scale(1,1)"
  style="font-size: 99px; font-family: ZubiloLined; weight: normal; fill: rgb(0, 128, 128);">
  ?
  </text>

<text text-anchor="middle" 
  transform="translate(-213, -8) 
  rotate(135)
  scale(1,1)"
  style="font-size: 99px; font-family: RigSolid; weight: normal; fill: rgb(128, 128, 0);">
  ?
  </text>

<text text-anchor="middle" 
  transform="translate(-248, -64) 
  rotate(0)
  scale(1,1)"
  style="font-size: 99px; font-family: Phosphate; weight: normal; fill: rgb(0, 128, 128);">
  ?
  </text>

<text text-anchor="middle" 
  transform="translate(-67, -215) 
  rotate(135)
  scale(1,1)"
  style="font-size: 97px; font-family: Blenny-Black; weight: normal; fill: rgb(128, 0, 128);">
  ?
  </text>

<text text-anchor="middle" 
  transform="translate(310, 380) 
  rotate(180)
  scale(1,1)"
  style="font-size: 97px; font-family: P22Stanyan; weight: normal; fill: rgb(128, 128, 0);">
  ?
  </text>

<text text-anchor="middle" 
  transform="translate(29, 258) 
  rotate(90)
  scale(1,1)"
  style="font-size: 96px; font-family: RigSolid; weight: normal; fill: rgb(128, 0, 128);">
  ?
  </text>

<text text-anchor="middle" 
  transform="translate(-108, 292) 
  rotate(180)
  scale(1,1)"
  style="font-size: 95px; font-family: Shlop; weight: normal; fill: rgb(128, 0, 128);">
  ?
  </text>

<text text-anchor="middle" 
  transform="translate(-243, -8) 
  rotate(270)
  scale(1,1)"
  style="font-size: 94px; font-family: Alfarn; weight: normal; fill: rgb(0, 0, 128);">
  ?
  </text>

<text text-anchor="middle" 
  transform="translate(-244, -256) 
  rotate(180)
  scale(1,1)"
  style="font-size: 94px; font-family: RigSolid; weight: normal; fill: rgb(128, 128, 0);">
  ?
  </text>

<text text-anchor="middle" 
  transform="translate(171, -63) 
  rotate(315)
  scale(1,1)"
  style="font-size: 93px; font-family: PeacockDeep-Bold; weight: normal; fill: rgb(128, 128, 0);">
  ?
  </text>

<text text-anchor="middle" 
  transform="translate(-181, 248) 
  rotate(90)
  scale(1,1)"
  style="font-size: 93px; font-family: PaintingWithChocolate; weight: normal; fill: rgb(128, 0, 128);">
  ?
  </text>

<text text-anchor="middle" 
  transform="translate(-252, 42) 
  rotate(225)
  scale(1,1)"
  style="font-size: 92px; font-family: Phosphate; weight: normal; fill: rgb(0, 0, 128);">
  ?
  </text>

<text text-anchor="middle" 
  transform="translate(302, -50) 
  rotate(180)
  scale(1,1)"
  style="font-size: 92px; font-family: Shlop; weight: normal; fill: rgb(128, 0, 0);">
  ?
  </text>

<text text-anchor="middle" 
  transform="translate(-87, -87) 
  rotate(0)
  scale(1,1)"
  style="font-size: 89px; font-family: PulpoRust-100; weight: normal; fill: rgb(128, 0, 128);">
  ?
  </text>

<text text-anchor="middle" 
  transform="translate(0, 120) 
  rotate(135)
  scale(1,1)"
  style="font-size: 89px; font-family: Alfarn; weight: normal; fill: rgb(0, 0, 128);">
  ?
  </text>

<text text-anchor="middle" 
  transform="translate(-178, -150) 
  rotate(135)
  scale(1,1)"
  style="font-size: 88px; font-family: PulpoRust-50; weight: normal; fill: rgb(128, 0, 128);">
  ?
  </text>

<text text-anchor="middle" 
  transform="translate(-259, -290) 
  rotate(225)
  scale(1,1)"
  style="font-size: 87px; font-family: AcierBATText-Gris; weight: normal; fill: rgb(0, 128, 128);">
  ?
  </text>

<text text-anchor="middle" 
  transform="translate(-150, -218) 
  rotate(135)
  scale(1,1)"
  style="font-size: 87px; font-family: JohnDoe; weight: normal; fill: rgb(0, 0, 128);">
  ?
  </text>

<text text-anchor="middle" 
  transform="translate(199, -240) 
  rotate(315)
  scale(1,1)"
  style="font-size: 86px; font-family: Chalkduster; weight: normal; fill: rgb(128, 0, 128);">
  ?
  </text>

<text text-anchor="middle" 
  transform="translate(-187, 285) 
  rotate(135)
  scale(1,1)"
  style="font-size: 86px; font-family: Shlop; weight: normal; fill: rgb(0, 0, 128);">
  ?
  </text>

<text text-anchor="middle" 
  transform="translate(-106, -288) 
  rotate(180)
  scale(1,1)"
  style="font-size: 85px; font-family: AcierBATText-Gris; weight: normal; fill: rgb(0, 128, 0);">
  ?
  </text>

<text text-anchor="middle" 
  transform="translate(207, -298) 
  rotate(0)
  scale(1,1)"
  style="font-size: 85px; font-family: StencilStd; weight: normal; fill: rgb(128, 0, 0);">
  ?
  </text>

<text text-anchor="middle" 
  transform="translate(90, 164) 
  rotate(0)
  scale(1,1)"
  style="font-size: 84px; font-family: Calder-LCGrit; weight: normal; fill: rgb(0, 128, 128);">
  ?
  </text>

<text text-anchor="middle" 
  transform="translate(100, -369) 
  rotate(180)
  scale(1,1)"
  style="font-size: 82px; font-family: Quast; weight: normal; fill: rgb(128, 0, 0);">
  ?
  </text>

<text text-anchor="middle" 
  transform="translate(-104, -324) 
  rotate(270)
  scale(1,1)"
  style="font-size: 79px; font-family: Decorative; weight: normal; fill: rgb(0, 128, 128);">
  ?
  </text>

<text text-anchor="middle" 
  transform="translate(-282, 129) 
  rotate(270)
  scale(1,1)"
  style="font-size: 79px; font-family: RigSolid; weight: normal; fill: rgb(128, 128, 0);">
  ?
  </text>

<text text-anchor="middle" 
  transform="translate(-17, 362) 
  rotate(45)
  scale(1,1)"
  style="font-size: 77px; font-family: Victorious; weight: normal; fill: rgb(0, 0, 128);">
  ?
  </text>

<text text-anchor="middle" 
  transform="translate(-5, -324) 
  rotate(135)
  scale(1,1)"
  style="font-size: 74px; font-family: blzee; weight: normal; fill: rgb(128, 0, 128);">
  ?
  </text>

<text text-anchor="middle" 
  transform="translate(-162, -173) 
  rotate(315)
  scale(1,1)"
  style="font-size: 74px; font-family: PulpoRust-50; weight: normal; fill: rgb(0, 0, 128);">
  ?
  </text>

<text text-anchor="middle" 
  transform="translate(247, 137) 
  rotate(135)
  scale(1,1)"
  style="font-size: 74px; font-family: Chalkduster; weight: normal; fill: rgb(0, 128, 0);">
  ?
  </text>

<text text-anchor="middle" 
  transform="translate(297, 68) 
  rotate(135)
  scale(1,1)"
  style="font-size: 72px; font-family: PulpoRust-25; weight: normal; fill: rgb(0, 128, 128);">
  ?
  </text>

<text text-anchor="middle" 
  transform="translate(-13, -244) 
  rotate(315)
  scale(1,1)"
  style="font-size: 72px; font-family: Quast; weight: normal; fill: rgb(128, 0, 128);">
  ?
  </text>

<text text-anchor="middle" 
  transform="translate(-67, 153) 
  rotate(315)
  scale(1,1)"
  style="font-size: 70px; font-family: PeacockDeep-Bold; weight: normal; fill: rgb(128, 128, 0);">
  ?
  </text>

<text text-anchor="middle" 
  transform="translate(-262, 312) 
  rotate(0)
  scale(1,1)"
  style="font-size: 70px; font-family: Chuck; weight: normal; fill: rgb(0, 0, 128);">
  ?
  </text>

<text text-anchor="middle" 
  transform="translate(-152, 357) 
  rotate(270)
  scale(1,1)"
  style="font-size: 69px; font-family: Alfarn; weight: normal; fill: rgb(0, 128, 0);">
  ?
  </text>

<text text-anchor="middle" 
  transform="translate(209, -157) 
  rotate(315)
  scale(1,1)"
  style="font-size: 64px; font-family: PulpoRust-50; weight: normal; fill: rgb(0, 128, 0);">
  ?
  </text>

<text text-anchor="middle" 
  transform="translate(-255, -159) 
  rotate(270)
  scale(1,1)"
  style="font-size: 64px; font-family: Blackcurrant-Black; weight: normal; fill: rgb(0, 128, 0);">
  ?
  </text>

<text text-anchor="middle" 
  transform="translate(109, 231) 
  rotate(90)
  scale(1,1)"
  style="font-size: 61px; font-family: blzee; weight: normal; fill: rgb(0, 128, 0);">
  ?
  </text>

<text text-anchor="middle" 
  transform="translate(313, 41) 
  rotate(90)
  scale(1,1)"
  style="font-size: 60px; font-family: RigSolid; weight: normal; fill: rgb(0, 0, 128);">
  ?
  </text>

<text text-anchor="middle" 
  transform="translate(40, 228) 
  rotate(315)
  scale(1,1)"
  style="font-size: 60px; font-family: RigSolid; weight: normal; fill: rgb(128, 128, 0);">
  ?
  </text>

<text text-anchor="middle" 
  transform="translate(-72, -328) 
  rotate(0)
  scale(1,1)"
  style="font-size: 59px; font-family: Blackcurrant-Black; weight: normal; fill: rgb(0, 0, 128);">
  ?
  </text>

<text text-anchor="middle" 
  transform="translate(-299, -50) 
  rotate(0)
  scale(1,1)"
  style="font-size: 58px; font-family: PulpoRust-50; weight: normal; fill: rgb(128, 0, 128);">
  ?
  </text>

<text text-anchor="middle" 
  transform="translate(84, -61) 
  rotate(225)
  scale(1,1)"
  style="font-size: 55px; font-family: Chinchilla; weight: normal; fill: rgb(128, 0, 128);">
  ?
  </text>

<text text-anchor="middle" 
  transform="translate(-306, -212) 
  rotate(225)
  scale(1,1)"
  style="font-size: 54px; font-family: Alfarn; weight: normal; fill: rgb(0, 128, 0);">
  ?
  </text>

<text text-anchor="middle" 
  transform="translate(-293, -121) 
  rotate(270)
  scale(1,1)"
  style="font-size: 53px; font-family: FlowerPower; weight: normal; fill: rgb(0, 0, 128);">
  ?
  </text>

<text text-anchor="middle" 
  transform="translate(-219, 281) 
  rotate(180)
  scale(1,1)"
  style="font-size: 53px; font-family: Abolition; weight: normal; fill: rgb(128, 0, 128);">
  ?
  </text>

<text text-anchor="middle" 
  transform="translate(-311, 221) 
  rotate(180)
  scale(1,1)"
  style="font-size: 52px; font-family: Abolition; weight: normal; fill: rgb(0, 128, 128);">
  ?
  </text>

<text text-anchor="middle" 
  transform="translate(128, -161) 
  rotate(225)
  scale(1,1)"
  style="font-size: 51px; font-family: AcierBATText-Gris; weight: normal; fill: rgb(128, 0, 0);">
  ?
  </text>

<text text-anchor="middle" 
  transform="translate(-354, -18) 
  rotate(45)
  scale(1,1)"
  style="font-size: 50px; font-family: PulpoRust-50; weight: normal; fill: rgb(128, 128, 0);">
  ?
  </text>

<text text-anchor="middle" 
  transform="translate(-39, 177) 
  rotate(90)
  scale(1,1)"
  style="font-size: 48px; font-family: Chinchilla; weight: normal; fill: rgb(0, 128, 0);">
  ?
  </text>

<text text-anchor="middle" 
  transform="translate(-316, 40) 
  rotate(270)
  scale(1,1)"
  style="font-size: 46px; font-family: Chuck; weight: normal; fill: rgb(0, 128, 0);">
  ?
  </text>

<text text-anchor="middle" 
  transform="translate(348, -65) 
  rotate(315)
  scale(1,1)"
  style="font-size: 45px; font-family: Blenny-Black; weight: normal; fill: rgb(0, 0, 128);">
  ?
  </text>

<text text-anchor="middle" 
  transform="translate(53, 196) 
  rotate(90)
  scale(1,1)"
  style="font-size: 45px; font-family: RigSolid; weight: normal; fill: rgb(0, 0, 128);">
  ?
  </text>

<text text-anchor="middle" 
  transform="translate(-352, -253) 
  rotate(135)
  scale(1,1)"
  style="font-size: 43px; font-family: ZubiloLined; weight: normal; fill: rgb(0, 128, 128);">
  ?
  </text>

<text text-anchor="middle" 
  transform="translate(-71, 407) 
  rotate(0)
  scale(1,1)"
  style="font-size: 43px; font-family: Alfarn; weight: normal; fill: rgb(0, 128, 0);">
  ?
  </text>

<text text-anchor="middle" 
  transform="translate(-231, -157) 
  rotate(90)
  scale(1,1)"
  style="font-size: 38px; font-family: Shlop; weight: normal; fill: rgb(0, 128, 128);">
  ?
  </text>

<text text-anchor="middle" 
  transform="translate(80, 317) 
  rotate(135)
  scale(1,1)"
  style="font-size: 38px; font-family: ColtSoft-Medium; weight: normal; fill: rgb(0, 128, 0);">
  ?
  </text>

<text text-anchor="middle" 
  transform="translate(-82, 62) 
  rotate(0)
  scale(1,1)"
  style="font-size: 37px; font-family: ColtSoft-Medium; weight: normal; fill: rgb(128, 0, 128);">
  ?
  </text>

<text text-anchor="middle" 
  transform="translate(-249, -317) 
  rotate(0)
  scale(1,1)"
  style="font-size: 36px; font-family: AcierBATText-Gris; weight: normal; fill: rgb(0, 128, 0);">
  ?
  </text>

<text text-anchor="middle" 
  transform="translate(308, 142) 
  rotate(90)
  scale(1,1)"
  style="font-size: 35px; font-family: P22Stanyan; weight: normal; fill: rgb(128, 0, 128);">
  ?
  </text>

<text text-anchor="middle" 
  transform="translate(-186, -93) 
  rotate(315)
  scale(1,1)"
  style="font-size: 35px; font-family: Calder-LCGrit; weight: normal; fill: rgb(128, 0, 0);">
  ?
  </text>

<text text-anchor="middle" 
  transform="translate(-222, 190) 
  rotate(0)
  scale(1,1)"
  style="font-size: 35px; font-family: PulpoRust-25; weight: normal; fill: rgb(0, 128, 128);">
  ?
  </text>

<text text-anchor="middle" 
  transform="translate(-178, 78) 
  rotate(270)
  scale(1,1)"
  style="font-size: 35px; font-family: AdornCopperplate; weight: normal; fill: rgb(128, 0, 0);">
  ?
  </text>

<text text-anchor="middle" 
  transform="translate(-344, 174) 
  rotate(315)
  scale(1,1)"
  style="font-size: 33px; font-family: PulpoRust-75; weight: normal; fill: rgb(128, 0, 0);">
  ?
  </text>

<text text-anchor="middle" 
  transform="translate(-62, 325) 
  rotate(180)
  scale(1,1)"
  style="font-size: 32px; font-family: PulpoRust-50; weight: normal; fill: rgb(128, 0, 128);">
  ?
  </text>

<text text-anchor="middle" 
  transform="translate(38, -349) 
  rotate(180)
  scale(1,1)"
  style="font-size: 31px; font-family: Chinchilla; weight: normal; fill: rgb(0, 128, 0);">
  ?
  </text>

<text text-anchor="middle" 
  transform="translate(68, 391) 
  rotate(45)
  scale(1,1)"
  style="font-size: 31px; font-family: Chalkduster; weight: normal; fill: rgb(128, 0, 128);">
  ?
  </text>

<text text-anchor="middle" 
  transform="translate(-362, -129) 
  rotate(225)
  scale(1,1)"
  style="font-size: 30px; font-family: PaintingWithChocolate; weight: normal; fill: rgb(128, 0, 0);">
  ?
  </text>

<text text-anchor="middle" 
  transform="translate(170, -360) 
  rotate(270)
  scale(1,1)"
  style="font-size: 29px; font-family: Abolition; weight: normal; fill: rgb(0, 128, 128);">
  ?
  </text>

<text text-anchor="middle" 
  transform="translate(270, -31) 
  rotate(270)
  scale(1,1)"
  style="font-size: 29px; font-family: Shlop; weight: normal; fill: rgb(0, 128, 128);">
  ?
  </text>

<text text-anchor="middle" 
  transform="translate(-349, -85) 
  rotate(135)
  scale(1,1)"
  style="font-size: 28px; font-family: IM_FELL_DW_Pica_Romanz; weight: normal; fill: rgb(0, 0, 128);">
  ?
  </text>

<text text-anchor="middle" 
  transform="translate(127, 197) 
  rotate(315)
  scale(1,1)"
  style="font-size: 28px; font-family: PeacockDeep-Bold; weight: normal; fill: rgb(128, 0, 0);">
  ?
  </text>

<text text-anchor="middle" 
  transform="translate(-200, -359) 
  rotate(225)
  scale(1,1)"
  style="font-size: 27px; font-family: Decorative; weight: normal; fill: rgb(0, 0, 128);">
  ?
  </text>

<text text-anchor="middle" 
  transform="translate(264, 265) 
  rotate(225)
  scale(1,1)"
  style="font-size: 25px; font-family: Shlop; weight: normal; fill: rgb(128, 128, 0);">
  ?
  </text>

</g>
</svg>
