<svg width="1000" height="1200" version="1.1" xmlns="http://www.w3.org/2000/svg">
<g transform="translate(500, 600) scale(1,1)">
<text text-anchor="middle" 
  transform="translate(-189, 108) 
  rotate(90)
  scale(1,1)"
  style="font-size: 124px; font-family: Shlop-Regular; weight: normal; fill: rgb(128, 128, 0);">
  ?
  </text>

<text text-anchor="middle" 
  transform="translate(-126, 56) 
  rotate(270)
  scale(1,1)"
  style="font-size: 124px; font-family: ShlopShloppy-Regular; weight: normal; fill: rgb(0, 0, 128);">
  ?
  </text>

<text text-anchor="middle" 
  transform="translate(81, -56) 
  rotate(0)
  scale(1,1)"
  style="font-size: 121px; font-family: Victorious; weight: normal; fill: rgb(0, 128, 128);">
  ?
  </text>

<text text-anchor="middle" 
  transform="translate(148, 32) 
  rotate(90)
  scale(1,1)"
  style="font-size: 120px; font-family: Arial; weight: normal; fill: rgb(255, 0, 0);">
  ?
  </text>

<text text-anchor="middle" 
  transform="translate(-103, 190) 
  rotate(45)
  scale(1,1)"
  style="font-size: 118px; font-family: Victorious; weight: normal; fill: rgb(0, 128, 0);">
  ?
  </text>

<text text-anchor="middle" 
  transform="translate(-192, 232) 
  rotate(270)
  scale(1,1)"
  style="font-size: 118px; font-family: Poultrygeist; weight: normal; fill: rgb(128, 0, 128);">
  ?
  </text>

<text text-anchor="middle" 
  transform="translate(-226, -180) 
  rotate(315)
  scale(1,1)"
  style="font-size: 114px; font-family: ShlopShloppy-Regular; weight: normal; fill: rgb(0, 0, 128);">
  ?
  </text>

<text text-anchor="middle" 
  transform="translate(-223, 8) 
  rotate(45)
  scale(1,1)"
  style="font-size: 111px; font-family: Shlop-Regular; weight: normal; fill: rgb(0, 128, 0);">
  ?
  </text>

<text text-anchor="middle" 
  transform="translate(-89, -44) 
  rotate(0)
  scale(1,1)"
  style="font-size: 109px; font-family: ShlopShloppy-Regular; weight: normal; fill: rgb(0, 128, 128);">
  ?
  </text>

<text text-anchor="middle" 
  transform="translate(-46, 270) 
  rotate(90)
  scale(1,1)"
  style="font-size: 109px; font-family: PulpoRust-75; weight: normal; fill: rgb(128, 0, 128);">
  ?
  </text>

<text text-anchor="middle" 
  transform="translate(-239, -108) 
  rotate(225)
  scale(1,1)"
  style="font-size: 104px; font-family: PulpoRust-75; weight: normal; fill: rgb(0, 128, 128);">
  ?
  </text>

<text text-anchor="middle" 
  transform="translate(28, -3) 
  rotate(135)
  scale(1,1)"
  style="font-size: 103px; font-family: Arial; weight: normal; fill: rgb(255, 0, 0);">
  ?
  </text>

<text text-anchor="middle" 
  transform="translate(150, 210) 
  rotate(135)
  scale(1,1)"
  style="font-size: 96px; font-family: ShlopShloppy-Regular; weight: normal; fill: rgb(128, 0, 0);">
  ?
  </text>

<text text-anchor="middle" 
  transform="translate(-98, 66) 
  rotate(45)
  scale(1,1)"
  style="font-size: 93px; font-family: Shlop-Regular; weight: normal; fill: rgb(0, 0, 128);">
  ?
  </text>

<text text-anchor="middle" 
  transform="translate(61, 88) 
  rotate(135)
  scale(1,1)"
  style="font-size: 92px; font-family: Shlop-Regular; weight: normal; fill: rgb(128, 128, 0);">
  ?
  </text>

<text text-anchor="middle" 
  transform="translate(-38, -113) 
  rotate(0)
  scale(1,1)"
  style="font-size: 92px; font-family: PulpoRust-75; weight: normal; fill: rgb(0, 128, 0);">
  ?
  </text>

<text text-anchor="middle" 
  transform="translate(-86, 292) 
  rotate(270)
  scale(1,1)"
  style="font-size: 91px; font-family: PulpoRust-75; weight: normal; fill: rgb(0, 0, 128);">
  ?
  </text>

<text text-anchor="middle" 
  transform="translate(-20, -295) 
  rotate(225)
  scale(1,1)"
  style="font-size: 90px; font-family: Tumult-Regular; weight: normal; fill: rgb(0, 128, 128);">
  ?
  </text>

<text text-anchor="middle" 
  transform="translate(189, 154) 
  rotate(135)
  scale(1,1)"
  style="font-size: 86px; font-family: Tumult-Regular; weight: normal; fill: rgb(128, 0, 0);">
  ?
  </text>

<text text-anchor="middle" 
  transform="translate(-33, 333) 
  rotate(135)
  scale(1,1)"
  style="font-size: 81px; font-family: Victorious; weight: normal; fill: rgb(128, 0, 0);">
  ?
  </text>

<text text-anchor="middle" 
  transform="translate(57, -258) 
  rotate(180)
  scale(1,1)"
  style="font-size: 80px; font-family: PulpoRust-75; weight: normal; fill: rgb(128, 128, 0);">
  ?
  </text>

<text text-anchor="middle" 
  transform="translate(-37, -52) 
  rotate(180)
  scale(1,1)"
  style="font-size: 70px; font-family: Poultrygeist; weight: normal; fill: rgb(0, 128, 128);">
  ?
  </text>

<text text-anchor="middle" 
  transform="translate(232, -268) 
  rotate(180)
  scale(1,1)"
  style="font-size: 66px; font-family: Tumult-Regular; weight: normal; fill: rgb(128, 128, 0);">
  ?
  </text>

<text text-anchor="middle" 
  transform="translate(55, -307) 
  rotate(0)
  scale(1,1)"
  style="font-size: 61px; font-family: Victorious; weight: normal; fill: rgb(0, 0, 128);">
  ?
  </text>

<text text-anchor="middle" 
  transform="translate(-9, 214) 
  rotate(90)
  scale(1,1)"
  style="font-size: 60px; font-family: Arial; weight: normal; fill: rgb(255, 0, 0);">
  ?
  </text>

<text text-anchor="middle" 
  transform="translate(139, -224) 
  rotate(90)
  scale(1,1)"
  style="font-size: 59px; font-family: Victorious; weight: normal; fill: rgb(128, 0, 128);">
  ?
  </text>

<text text-anchor="middle" 
  transform="translate(70, 169) 
  rotate(180)
  scale(1,1)"
  style="font-size: 58px; font-family: ShlopShloppy-Regular; weight: normal; fill: rgb(0, 128, 128);">
  ?
  </text>

<text text-anchor="middle" 
  transform="translate(-222, 91) 
  rotate(225)
  scale(1,1)"
  style="font-size: 55px; font-family: Arial; weight: normal; fill: rgb(255, 0, 0);">
  ?
  </text>

<text text-anchor="middle" 
  transform="translate(-188, 157) 
  rotate(90)
  scale(1,1)"
  style="font-size: 53px; font-family: Tumult-Regular; weight: normal; fill: rgb(0, 0, 128);">
  ?
  </text>

<text text-anchor="middle" 
  transform="translate(-235, 310) 
  rotate(315)
  scale(1,1)"
  style="font-size: 52px; font-family: Arial; weight: normal; fill: rgb(255, 0, 0);">
  ?
  </text>

<text text-anchor="middle" 
  transform="translate(214, 125) 
  rotate(90)
  scale(1,1)"
  style="font-size: 51px; font-family: Shlop-Regular; weight: normal; fill: rgb(0, 128, 128);">
  ?
  </text>

<text text-anchor="middle" 
  transform="translate(-161, -87) 
  rotate(270)
  scale(1,1)"
  style="font-size: 49px; font-family: Tumult-Regular; weight: normal; fill: rgb(128, 128, 0);">
  ?
  </text>

<text text-anchor="middle" 
  transform="translate(207, -54) 
  rotate(270)
  scale(1,1)"
  style="font-size: 49px; font-family: Poultrygeist; weight: normal; fill: rgb(128, 128, 0);">
  ?
  </text>

<text text-anchor="middle" 
  transform="translate(66, 260) 
  rotate(45)
  scale(1,1)"
  style="font-size: 49px; font-family: Shlop-Regular; weight: normal; fill: rgb(128, 0, 128);">
  ?
  </text>

<text text-anchor="middle" 
  transform="translate(63, 322) 
  rotate(0)
  scale(1,1)"
  style="font-size: 45px; font-family: Poultrygeist; weight: normal; fill: rgb(0, 128, 128);">
  ?
  </text>

<text text-anchor="middle" 
  transform="translate(-237, -292) 
  rotate(225)
  scale(1,1)"
  style="font-size: 41px; font-family: ShlopShloppy-Regular; weight: normal; fill: rgb(0, 0, 128);">
  ?
  </text>

<text text-anchor="middle" 
  transform="translate(237, 257) 
  rotate(0)
  scale(1,1)"
  style="font-size: 41px; font-family: PulpoRust-75; weight: normal; fill: rgb(0, 0, 128);">
  ?
  </text>

<text text-anchor="middle" 
  transform="translate(-297, 69) 
  rotate(45)
  scale(1,1)"
  style="font-size: 38px; font-family: Victorious; weight: normal; fill: rgb(0, 0, 128);">
  ?
  </text>

<text text-anchor="middle" 
  transform="translate(-148, -183) 
  rotate(270)
  scale(1,1)"
  style="font-size: 38px; font-family: Tumult-Regular; weight: normal; fill: rgb(0, 0, 128);">
  ?
  </text>

<text text-anchor="middle" 
  transform="translate(134, 160) 
  rotate(45)
  scale(1,1)"
  style="font-size: 36px; font-family: Poultrygeist; weight: normal; fill: rgb(0, 128, 128);">
  ?
  </text>

<text text-anchor="middle" 
  transform="translate(-124, 28) 
  rotate(0)
  scale(1,1)"
  style="font-size: 34px; font-family: ShlopShloppy-Regular; weight: normal; fill: rgb(0, 128, 0);">
  ?
  </text>

<text text-anchor="middle" 
  transform="translate(-210, 160) 
  rotate(270)
  scale(1,1)"
  style="font-size: 34px; font-family: Arial; weight: normal; fill: rgb(255, 0, 0);">
  ?
  </text>

<text text-anchor="middle" 
  transform="translate(-205, 275) 
  rotate(180)
  scale(1,1)"
  style="font-size: 34px; font-family: Tumult-Regular; weight: normal; fill: rgb(0, 128, 0);">
  ?
  </text>

<text text-anchor="middle" 
  transform="translate(-194, 196) 
  rotate(270)
  scale(1,1)"
  style="font-size: 32px; font-family: Tumult-Regular; weight: normal; fill: rgb(0, 0, 128);">
  ?
  </text>

<text text-anchor="middle" 
  transform="translate(-257, -12) 
  rotate(45)
  scale(1,1)"
  style="font-size: 32px; font-family: Shlop-Regular; weight: normal; fill: rgb(128, 0, 128);">
  ?
  </text>

<text text-anchor="middle" 
  transform="translate(16, -45) 
  rotate(270)
  scale(1,1)"
  style="font-size: 30px; font-family: Tumult-Regular; weight: normal; fill: rgb(128, 128, 0);">
  ?
  </text>

<text text-anchor="middle" 
  transform="translate(26, -175) 
  rotate(225)
  scale(1,1)"
  style="font-size: 29px; font-family: PulpoRust-75; weight: normal; fill: rgb(0, 128, 0);">
  ?
  </text>

<text text-anchor="middle" 
  transform="translate(126, 89) 
  rotate(135)
  scale(1,1)"
  style="font-size: 26px; font-family: Shlop-Regular; weight: normal; fill: rgb(0, 128, 0);">
  ?
  </text>

<text text-anchor="middle" 
  transform="translate(204, 288) 
  rotate(90)
  scale(1,1)"
  style="font-size: 25px; font-family: Arial; weight: normal; fill: rgb(255, 0, 0);">
  ?
  </text>

<text text-anchor="middle" 
  transform="translate(-154, 190) 
  rotate(180)
  scale(1,1)"
  style="font-size: 25px; font-family: Shlop-Regular; weight: normal; fill: rgb(0, 128, 0);">
  ?
  </text>

</g>
</svg>
