<svg width="1000" height="1200" version="1.1" xmlns="http://www.w3.org/2000/svg">
<g transform="translate(500, 600) scale(1,1)">
<text text-anchor="middle" 
  transform="translate(39, 130) 
  rotate(45)
  scale(1,1)"
  style="font-size: 123px; font-family: Bauhaus93; weight: normal; fill: rgb(128, 128, 0);">
  ?
  </text>

<text text-anchor="middle" 
  transform="translate(-79, 138) 
  rotate(45)
  scale(1,1)"
  style="font-size: 122px; font-family: Victorious; weight: normal; fill: rgb(0, 128, 0);">
  ?
  </text>

<text text-anchor="middle" 
  transform="translate(116, -50) 
  rotate(135)
  scale(1,1)"
  style="font-size: 121px; font-family: Shlop; weight: normal; fill: rgb(128, 0, 0);">
  ?
  </text>

<text text-anchor="middle" 
  transform="translate(48, 292) 
  rotate(0)
  scale(1,1)"
  style="font-size: 120px; font-family: Phosphate; weight: normal; fill: rgb(0, 0, 128);">
  ?
  </text>

<text text-anchor="middle" 
  transform="translate(142, -206) 
  rotate(45)
  scale(1,1)"
  style="font-size: 119px; font-family: Chinchilla; weight: normal; fill: rgb(128, 0, 128);">
  ?
  </text>

<text text-anchor="middle" 
  transform="translate(4, 300) 
  rotate(180)
  scale(1,1)"
  style="font-size: 119px; font-family: PulpoRust-25; weight: normal; fill: rgb(128, 0, 0);">
  ?
  </text>

<text text-anchor="middle" 
  transform="translate(-200, -31) 
  rotate(315)
  scale(1,1)"
  style="font-size: 119px; font-family: Victorious; weight: normal; fill: rgb(128, 0, 128);">
  ?
  </text>

<text text-anchor="middle" 
  transform="translate(-174, 32) 
  rotate(90)
  scale(1,1)"
  style="font-size: 119px; font-family: Abolition; weight: normal; fill: rgb(128, 0, 128);">
  ?
  </text>

<text text-anchor="middle" 
  transform="translate(-223, 116) 
  rotate(135)
  scale(1,1)"
  style="font-size: 119px; font-family: P22Stanyan; weight: normal; fill: rgb(0, 128, 0);">
  ?
  </text>

<text text-anchor="middle" 
  transform="translate(151, 161) 
  rotate(135)
  scale(1,1)"
  style="font-size: 118px; font-family: AcierBATText-Gris; weight: normal; fill: rgb(0, 128, 128);">
  ?
  </text>

<text text-anchor="middle" 
  transform="translate(-65, 10) 
  rotate(45)
  scale(1,1)"
  style="font-size: 118px; font-family: blzee; weight: normal; fill: rgb(128, 0, 128);">
  ?
  </text>

<text text-anchor="middle" 
  transform="translate(97, 254) 
  rotate(180)
  scale(1,1)"
  style="font-size: 118px; font-family: Phosphate; weight: normal; fill: rgb(128, 128, 0);">
  ?
  </text>

<text text-anchor="middle" 
  transform="translate(-78, -39) 
  rotate(0)
  scale(1,1)"
  style="font-size: 117px; font-family: Quast; weight: normal; fill: rgb(128, 128, 0);">
  ?
  </text>

<text text-anchor="middle" 
  transform="translate(-290, 118) 
  rotate(45)
  scale(1,1)"
  style="font-size: 116px; font-family: Quast; weight: normal; fill: rgb(128, 0, 128);">
  ?
  </text>

<text text-anchor="middle" 
  transform="translate(-70, 259) 
  rotate(45)
  scale(1,1)"
  style="font-size: 116px; font-family: AdornCopperplate; weight: normal; fill: rgb(0, 128, 0);">
  ?
  </text>

<text text-anchor="middle" 
  transform="translate(106, -182) 
  rotate(135)
  scale(1,1)"
  style="font-size: 114px; font-family: Alfarn; weight: normal; fill: rgb(128, 0, 0);">
  ?
  </text>

<text text-anchor="middle" 
  transform="translate(251, -11) 
  rotate(315)
  scale(1,1)"
  style="font-size: 110px; font-family: Bauhaus93; weight: normal; fill: rgb(128, 0, 128);">
  ?
  </text>

<text text-anchor="middle" 
  transform="translate(26, 10) 
  rotate(90)
  scale(1,1)"
  style="font-size: 110px; font-family: PulpoRust-75; weight: normal; fill: rgb(0, 128, 128);">
  ?
  </text>

<text text-anchor="middle" 
  transform="translate(141, -245) 
  rotate(315)
  scale(1,1)"
  style="font-size: 108px; font-family: JohnDoe; weight: normal; fill: rgb(128, 128, 0);">
  ?
  </text>

<text text-anchor="middle" 
  transform="translate(204, -197) 
  rotate(135)
  scale(1,1)"
  style="font-size: 108px; font-family: Alfarn; weight: normal; fill: rgb(0, 128, 128);">
  ?
  </text>

<text text-anchor="middle" 
  transform="translate(-25, -194) 
  rotate(45)
  scale(1,1)"
  style="font-size: 105px; font-family: PaintingWithChocolate; weight: normal; fill: rgb(128, 0, 0);">
  ?
  </text>

<text text-anchor="middle" 
  transform="translate(95, 211) 
  rotate(0)
  scale(1,1)"
  style="font-size: 105px; font-family: StencilStd; weight: normal; fill: rgb(0, 0, 128);">
  ?
  </text>

<text text-anchor="middle" 
  transform="translate(66, -207) 
  rotate(180)
  scale(1,1)"
  style="font-size: 104px; font-family: NasalizationRg-Regular; weight: normal; fill: rgb(0, 128, 128);">
  ?
  </text>

<text text-anchor="middle" 
  transform="translate(-94, -236) 
  rotate(225)
  scale(1,1)"
  style="font-size: 104px; font-family: Alfarn; weight: normal; fill: rgb(128, 0, 0);">
  ?
  </text>

<text text-anchor="middle" 
  transform="translate(-131, -326) 
  rotate(180)
  scale(1,1)"
  style="font-size: 104px; font-family: Abolition; weight: normal; fill: rgb(128, 0, 128);">
  ?
  </text>

<text text-anchor="middle" 
  transform="translate(-176, 254) 
  rotate(45)
  scale(1,1)"
  style="font-size: 103px; font-family: AcierBATText-Gris; weight: normal; fill: rgb(128, 128, 0);">
  ?
  </text>

<text text-anchor="middle" 
  transform="translate(177, 139) 
  rotate(90)
  scale(1,1)"
  style="font-size: 101px; font-family: StencilStd; weight: normal; fill: rgb(128, 0, 128);">
  ?
  </text>

<text text-anchor="middle" 
  transform="translate(178, 253) 
  rotate(180)
  scale(1,1)"
  style="font-size: 99px; font-family: Bauhaus93; weight: normal; fill: rgb(0, 128, 128);">
  ?
  </text>

<text text-anchor="middle" 
  transform="translate(-149, 291) 
  rotate(90)
  scale(1,1)"
  style="font-size: 97px; font-family: PulpoRust-100; weight: normal; fill: rgb(0, 0, 128);">
  ?
  </text>

<text text-anchor="middle" 
  transform="translate(-256, -29) 
  rotate(225)
  scale(1,1)"
  style="font-size: 97px; font-family: ColtSoft-Medium; weight: normal; fill: rgb(0, 0, 128);">
  ?
  </text>

<text text-anchor="middle" 
  transform="translate(-195, -143) 
  rotate(0)
  scale(1,1)"
  style="font-size: 96px; font-family: Phosphate; weight: normal; fill: rgb(0, 0, 128);">
  ?
  </text>

<text text-anchor="middle" 
  transform="translate(165, 129) 
  rotate(0)
  scale(1,1)"
  style="font-size: 96px; font-family: Quast; weight: normal; fill: rgb(0, 128, 0);">
  ?
  </text>

<text text-anchor="middle" 
  transform="translate(-120, 339) 
  rotate(270)
  scale(1,1)"
  style="font-size: 96px; font-family: Alfarn; weight: normal; fill: rgb(128, 0, 128);">
  ?
  </text>

<text text-anchor="middle" 
  transform="translate(-283, 229) 
  rotate(135)
  scale(1,1)"
  style="font-size: 94px; font-family: Victorious; weight: normal; fill: rgb(128, 0, 0);">
  ?
  </text>

<text text-anchor="middle" 
  transform="translate(229, 310) 
  rotate(0)
  scale(1,1)"
  style="font-size: 93px; font-family: Calder-LCGrit; weight: normal; fill: rgb(128, 128, 0);">
  ?
  </text>

<text text-anchor="middle" 
  transform="translate(-59, 345) 
  rotate(180)
  scale(1,1)"
  style="font-size: 91px; font-family: PulpoRust-50; weight: normal; fill: rgb(0, 128, 0);">
  ?
  </text>

<text text-anchor="middle" 
  transform="translate(41, -56) 
  rotate(45)
  scale(1,1)"
  style="font-size: 90px; font-family: PeacockDeep-Bold; weight: normal; fill: rgb(128, 0, 128);">
  ?
  </text>

<text text-anchor="middle" 
  transform="translate(-216, -281) 
  rotate(225)
  scale(1,1)"
  style="font-size: 87px; font-family: BlowUp; weight: normal; fill: rgb(0, 0, 128);">
  ?
  </text>

<text text-anchor="middle" 
  transform="translate(64, 348) 
  rotate(180)
  scale(1,1)"
  style="font-size: 87px; font-family: PulpoRust-25; weight: normal; fill: rgb(128, 128, 0);">
  ?
  </text>

<text text-anchor="middle" 
  transform="translate(-261, 399) 
  rotate(45)
  scale(1,1)"
  style="font-size: 87px; font-family: Abolition; weight: normal; fill: rgb(0, 128, 0);">
  ?
  </text>

<text text-anchor="middle" 
  transform="translate(298, 352) 
  rotate(270)
  scale(1,1)"
  style="font-size: 86px; font-family: ZubiloLined; weight: normal; fill: rgb(0, 0, 128);">
  ?
  </text>

<text text-anchor="middle" 
  transform="translate(206, 365) 
  rotate(270)
  scale(1,1)"
  style="font-size: 85px; font-family: PulpoRust-100; weight: normal; fill: rgb(128, 128, 0);">
  ?
  </text>

<text text-anchor="middle" 
  transform="translate(-2, -106) 
  rotate(0)
  scale(1,1)"
  style="font-size: 83px; font-family: Abolition; weight: normal; fill: rgb(128, 0, 128);">
  ?
  </text>

<text text-anchor="middle" 
  transform="translate(-103, 400) 
  rotate(270)
  scale(1,1)"
  style="font-size: 82px; font-family: FlowerPower; weight: normal; fill: rgb(128, 0, 0);">
  ?
  </text>

<text text-anchor="middle" 
  transform="translate(-227, 173) 
  rotate(270)
  scale(1,1)"
  style="font-size: 80px; font-family: ColtSoft-Medium; weight: normal; fill: rgb(0, 128, 0);">
  ?
  </text>

<text text-anchor="middle" 
  transform="translate(-281, -152) 
  rotate(0)
  scale(1,1)"
  style="font-size: 76px; font-family: blzee; weight: normal; fill: rgb(128, 0, 128);">
  ?
  </text>

<text text-anchor="middle" 
  transform="translate(-179, 107) 
  rotate(45)
  scale(1,1)"
  style="font-size: 74px; font-family: Abolition; weight: normal; fill: rgb(128, 0, 0);">
  ?
  </text>

<text text-anchor="middle" 
  transform="translate(212, 9) 
  rotate(135)
  scale(1,1)"
  style="font-size: 74px; font-family: ZubiloLined; weight: normal; fill: rgb(128, 0, 0);">
  ?
  </text>

<text text-anchor="middle" 
  transform="translate(-209, -330) 
  rotate(135)
  scale(1,1)"
  style="font-size: 74px; font-family: PulpoRust-50; weight: normal; fill: rgb(128, 0, 0);">
  ?
  </text>

<text text-anchor="middle" 
  transform="translate(-17, -268) 
  rotate(225)
  scale(1,1)"
  style="font-size: 72px; font-family: PulpoRust-75; weight: normal; fill: rgb(128, 0, 128);">
  ?
  </text>

<text text-anchor="middle" 
  transform="translate(-48, -286) 
  rotate(0)
  scale(1,1)"
  style="font-size: 71px; font-family: BlowUp; weight: normal; fill: rgb(0, 128, 0);">
  ?
  </text>

<text text-anchor="middle" 
  transform="translate(150, 418) 
  rotate(90)
  scale(1,1)"
  style="font-size: 68px; font-family: P22Stanyan; weight: normal; fill: rgb(128, 128, 0);">
  ?
  </text>

<text text-anchor="middle" 
  transform="translate(-128, -351) 
  rotate(90)
  scale(1,1)"
  style="font-size: 67px; font-family: Bauhaus93; weight: normal; fill: rgb(0, 0, 128);">
  ?
  </text>

<text text-anchor="middle" 
  transform="translate(248, -214) 
  rotate(45)
  scale(1,1)"
  style="font-size: 67px; font-family: WTRGothicOpenShaded; weight: normal; fill: rgb(128, 128, 0);">
  ?
  </text>

<text text-anchor="middle" 
  transform="translate(-327, -247) 
  rotate(45)
  scale(1,1)"
  style="font-size: 65px; font-family: PaintingWithChocolate; weight: normal; fill: rgb(0, 128, 128);">
  ?
  </text>

<text text-anchor="middle" 
  transform="translate(224, 87) 
  rotate(90)
  scale(1,1)"
  style="font-size: 65px; font-family: Shlop; weight: normal; fill: rgb(0, 128, 128);">
  ?
  </text>

<text text-anchor="middle" 
  transform="translate(-319, 183) 
  rotate(0)
  scale(1,1)"
  style="font-size: 64px; font-family: PulpoRust-50; weight: normal; fill: rgb(0, 128, 0);">
  ?
  </text>

<text text-anchor="middle" 
  transform="translate(-171, -226) 
  rotate(315)
  scale(1,1)"
  style="font-size: 63px; font-family: Blackcurrant-Black; weight: normal; fill: rgb(128, 0, 128);">
  ?
  </text>

<text text-anchor="middle" 
  transform="translate(263, 198) 
  rotate(45)
  scale(1,1)"
  style="font-size: 62px; font-family: Chalkduster; weight: normal; fill: rgb(0, 128, 128);">
  ?
  </text>

<text text-anchor="middle" 
  transform="translate(12, -310) 
  rotate(135)
  scale(1,1)"
  style="font-size: 62px; font-family: Chinchilla; weight: normal; fill: rgb(0, 128, 128);">
  ?
  </text>

<text text-anchor="middle" 
  transform="translate(-158, -91) 
  rotate(0)
  scale(1,1)"
  style="font-size: 62px; font-family: Shlop; weight: normal; fill: rgb(128, 128, 0);">
  ?
  </text>

<text text-anchor="middle" 
  transform="translate(62, -317) 
  rotate(0)
  scale(1,1)"
  style="font-size: 61px; font-family: Shlop; weight: normal; fill: rgb(128, 128, 0);">
  ?
  </text>

<text text-anchor="middle" 
  transform="translate(158, -53) 
  rotate(0)
  scale(1,1)"
  style="font-size: 59px; font-family: PulpoRust-100; weight: normal; fill: rgb(128, 0, 128);">
  ?
  </text>

<text text-anchor="middle" 
  transform="translate(-316, 42) 
  rotate(225)
  scale(1,1)"
  style="font-size: 58px; font-family: ZubiloLined; weight: normal; fill: rgb(0, 0, 128);">
  ?
  </text>

<text text-anchor="middle" 
  transform="translate(-309, 355) 
  rotate(45)
  scale(1,1)"
  style="font-size: 58px; font-family: PaintingWithChocolate; weight: normal; fill: rgb(0, 128, 0);">
  ?
  </text>

<text text-anchor="middle" 
  transform="translate(293, -72) 
  rotate(225)
  scale(1,1)"
  style="font-size: 58px; font-family: Shlop; weight: normal; fill: rgb(0, 128, 128);">
  ?
  </text>

<text text-anchor="middle" 
  transform="translate(-282, -306) 
  rotate(90)
  scale(1,1)"
  style="font-size: 57px; font-family: PulpoRust-100; weight: normal; fill: rgb(128, 128, 0);">
  ?
  </text>

<text text-anchor="middle" 
  transform="translate(313, -170) 
  rotate(45)
  scale(1,1)"
  style="font-size: 55px; font-family: Chalkduster; weight: normal; fill: rgb(128, 0, 0);">
  ?
  </text>

<text text-anchor="middle" 
  transform="translate(-74, -198) 
  rotate(135)
  scale(1,1)"
  style="font-size: 51px; font-family: AcierBATText-Gris; weight: normal; fill: rgb(128, 0, 128);">
  ?
  </text>

<text text-anchor="middle" 
  transform="translate(-331, -25) 
  rotate(45)
  scale(1,1)"
  style="font-size: 51px; font-family: NasalizationRg-Regular; weight: normal; fill: rgb(0, 128, 128);">
  ?
  </text>

<text text-anchor="middle" 
  transform="translate(52, 175) 
  rotate(270)
  scale(1,1)"
  style="font-size: 50px; font-family: PulpoRust-25; weight: normal; fill: rgb(128, 0, 0);">
  ?
  </text>

<text text-anchor="middle" 
  transform="translate(-215, 203) 
  rotate(135)
  scale(1,1)"
  style="font-size: 50px; font-family: AcierBATText-Gris; weight: normal; fill: rgb(128, 0, 0);">
  ?
  </text>

<text text-anchor="middle" 
  transform="translate(-318, -178) 
  rotate(180)
  scale(1,1)"
  style="font-size: 50px; font-family: blzee; weight: normal; fill: rgb(128, 128, 0);">
  ?
  </text>

<text text-anchor="middle" 
  transform="translate(-353, -224) 
  rotate(135)
  scale(1,1)"
  style="font-size: 49px; font-family: PulpoRust-50; weight: normal; fill: rgb(128, 0, 128);">
  ?
  </text>

<text text-anchor="middle" 
  transform="translate(133, 198) 
  rotate(180)
  scale(1,1)"
  style="font-size: 49px; font-family: Alfarn; weight: normal; fill: rgb(0, 128, 128);">
  ?
  </text>

<text text-anchor="middle" 
  transform="translate(241, -299) 
  rotate(180)
  scale(1,1)"
  style="font-size: 47px; font-family: PulpoRust-25; weight: normal; fill: rgb(0, 0, 128);">
  ?
  </text>

<text text-anchor="middle" 
  transform="translate(240, -90) 
  rotate(45)
  scale(1,1)"
  style="font-size: 46px; font-family: Calder-LCGrit; weight: normal; fill: rgb(0, 0, 128);">
  ?
  </text>

<text text-anchor="middle" 
  transform="translate(296, 23) 
  rotate(315)
  scale(1,1)"
  style="font-size: 46px; font-family: AdornCopperplate; weight: normal; fill: rgb(0, 0, 128);">
  ?
  </text>

<text text-anchor="middle" 
  transform="translate(-30, 310) 
  rotate(315)
  scale(1,1)"
  style="font-size: 45px; font-family: Blenny-Black; weight: normal; fill: rgb(0, 128, 0);">
  ?
  </text>

<text text-anchor="middle" 
  transform="translate(-238, -188) 
  rotate(180)
  scale(1,1)"
  style="font-size: 44px; font-family: PulpoRust-25; weight: normal; fill: rgb(128, 128, 0);">
  ?
  </text>

<text text-anchor="middle" 
  transform="translate(98, 362) 
  rotate(135)
  scale(1,1)"
  style="font-size: 43px; font-family: Bauhaus93; weight: normal; fill: rgb(128, 0, 128);">
  ?
  </text>

<text text-anchor="middle" 
  transform="translate(-362, -74) 
  rotate(90)
  scale(1,1)"
  style="font-size: 41px; font-family: NasalizationRg-Regular; weight: normal; fill: rgb(128, 0, 0);">
  ?
  </text>

<text text-anchor="middle" 
  transform="translate(-338, 105) 
  rotate(225)
  scale(1,1)"
  style="font-size: 39px; font-family: FlowerPower; weight: normal; fill: rgb(0, 0, 128);">
  ?
  </text>

<text text-anchor="middle" 
  transform="translate(-313, 298) 
  rotate(225)
  scale(1,1)"
  style="font-size: 39px; font-family: PulpoRust-75; weight: normal; fill: rgb(0, 128, 0);">
  ?
  </text>

<text text-anchor="middle" 
  transform="translate(-134, 140) 
  rotate(0)
  scale(1,1)"
  style="font-size: 39px; font-family: PulpoRust-25; weight: normal; fill: rgb(128, 0, 0);">
  ?
  </text>

<text text-anchor="middle" 
  transform="translate(191, -111) 
  rotate(90)
  scale(1,1)"
  style="font-size: 37px; font-family: BlowUp; weight: normal; fill: rgb(0, 128, 0);">
  ?
  </text>

<text text-anchor="middle" 
  transform="translate(-339, 22) 
  rotate(315)
  scale(1,1)"
  style="font-size: 36px; font-family: Decorative; weight: normal; fill: rgb(128, 0, 0);">
  ?
  </text>

<text text-anchor="middle" 
  transform="translate(1, 433) 
  rotate(45)
  scale(1,1)"
  style="font-size: 35px; font-family: blzee; weight: normal; fill: rgb(0, 128, 128);">
  ?
  </text>

<text text-anchor="middle" 
  transform="translate(178, -297) 
  rotate(270)
  scale(1,1)"
  style="font-size: 34px; font-family: IM_FELL_DW_Pica_Romanz; weight: normal; fill: rgb(128, 0, 0);">
  ?
  </text>

<text text-anchor="middle" 
  transform="translate(-354, 336) 
  rotate(135)
  scale(1,1)"
  style="font-size: 34px; font-family: Chinchilla; weight: normal; fill: rgb(128, 0, 128);">
  ?
  </text>

<text text-anchor="middle" 
  transform="translate(91, -218) 
  rotate(0)
  scale(1,1)"
  style="font-size: 34px; font-family: PulpoRust-75; weight: normal; fill: rgb(128, 0, 128);">
  ?
  </text>

<text text-anchor="middle" 
  transform="translate(282, 44) 
  rotate(135)
  scale(1,1)"
  style="font-size: 34px; font-family: PeacockDeep-Bold; weight: normal; fill: rgb(128, 128, 0);">
  ?
  </text>

<text text-anchor="middle" 
  transform="translate(-93, -282) 
  rotate(45)
  scale(1,1)"
  style="font-size: 31px; font-family: AcierBATText-Gris; weight: normal; fill: rgb(128, 0, 0);">
  ?
  </text>

<text text-anchor="middle" 
  transform="translate(-114, 76) 
  rotate(90)
  scale(1,1)"
  style="font-size: 30px; font-family: Calder-LCGrit; weight: normal; fill: rgb(128, 0, 0);">
  ?
  </text>

<text text-anchor="middle" 
  transform="translate(11, -339) 
  rotate(270)
  scale(1,1)"
  style="font-size: 30px; font-family: StencilStd; weight: normal; fill: rgb(0, 128, 128);">
  ?
  </text>

<text text-anchor="middle" 
  transform="translate(262, 296) 
  rotate(45)
  scale(1,1)"
  style="font-size: 30px; font-family: AcierBATText-Gris; weight: normal; fill: rgb(128, 0, 0);">
  ?
  </text>

<text text-anchor="middle" 
  transform="translate(-17, 266) 
  rotate(90)
  scale(1,1)"
  style="font-size: 28px; font-family: Chinchilla; weight: normal; fill: rgb(128, 0, 0);">
  ?
  </text>

<text text-anchor="middle" 
  transform="translate(126, -338) 
  rotate(135)
  scale(1,1)"
  style="font-size: 27px; font-family: RigSolid; weight: normal; fill: rgb(128, 0, 0);">
  ?
  </text>

<text text-anchor="middle" 
  transform="translate(-371, -112) 
  rotate(90)
  scale(1,1)"
  style="font-size: 26px; font-family: Chuck; weight: normal; fill: rgb(128, 0, 0);">
  ?
  </text>

<text text-anchor="middle" 
  transform="translate(39, -22) 
  rotate(90)
  scale(1,1)"
  style="font-size: 25px; font-family: AdornCopperplate; weight: normal; fill: rgb(128, 0, 0);">
  ?
  </text>

</g>
</svg>
