<svg width="1000" height="1200" version="1.1" xmlns="http://www.w3.org/2000/svg">
<g transform="translate(500, 600) scale(1,1)">
<text text-anchor="middle" 
  transform="translate(46, 55) 
  rotate(0)
  scale(1,1)"
  style="font-size: 124px; font-family: Bauhaus93; weight: normal; fill: rgb(0, 0, 128);">
  ?
  </text>

<text text-anchor="middle" 
  transform="translate(118, -180) 
  rotate(45)
  scale(1,1)"
  style="font-size: 123px; font-family: blzee; weight: normal; fill: rgb(128, 128, 0);">
  ?
  </text>

<text text-anchor="middle" 
  transform="translate(-92, 4) 
  rotate(45)
  scale(1,1)"
  style="font-size: 120px; font-family: IM_FELL_DW_Pica_Romanz; weight: normal; fill: rgb(128, 0, 0);">
  ?
  </text>

<text text-anchor="middle" 
  transform="translate(32, -187) 
  rotate(45)
  scale(1,1)"
  style="font-size: 119px; font-family: RigSolid; weight: normal; fill: rgb(0, 128, 0);">
  ?
  </text>

<text text-anchor="middle" 
  transform="translate(-249, 49) 
  rotate(0)
  scale(1,1)"
  style="font-size: 119px; font-family: AcierBATText-Gris; weight: normal; fill: rgb(0, 128, 0);">
  ?
  </text>

<text text-anchor="middle" 
  transform="translate(-22, -275) 
  rotate(45)
  scale(1,1)"
  style="font-size: 119px; font-family: Victorious; weight: normal; fill: rgb(0, 0, 128);">
  ?
  </text>

<text text-anchor="middle" 
  transform="translate(-48, 18) 
  rotate(135)
  scale(1,1)"
  style="font-size: 119px; font-family: PulpoRust-50; weight: normal; fill: rgb(128, 0, 128);">
  ?
  </text>

<text text-anchor="middle" 
  transform="translate(-41, -132) 
  rotate(90)
  scale(1,1)"
  style="font-size: 118px; font-family: Abolition; weight: normal; fill: rgb(128, 0, 0);">
  ?
  </text>

<text text-anchor="middle" 
  transform="translate(-187, -65) 
  rotate(90)
  scale(1,1)"
  style="font-size: 117px; font-family: StencilStd; weight: normal; fill: rgb(0, 128, 0);">
  ?
  </text>

<text text-anchor="middle" 
  transform="translate(-111, 120) 
  rotate(90)
  scale(1,1)"
  style="font-size: 117px; font-family: PulpoRust-75; weight: normal; fill: rgb(0, 128, 128);">
  ?
  </text>

<text text-anchor="middle" 
  transform="translate(-86, 155) 
  rotate(135)
  scale(1,1)"
  style="font-size: 116px; font-family: RigSolid; weight: normal; fill: rgb(128, 0, 0);">
  ?
  </text>

<text text-anchor="middle" 
  transform="translate(-176, 201) 
  rotate(180)
  scale(1,1)"
  style="font-size: 116px; font-family: PulpoRust-25; weight: normal; fill: rgb(0, 0, 128);">
  ?
  </text>

<text text-anchor="middle" 
  transform="translate(-171, 53) 
  rotate(0)
  scale(1,1)"
  style="font-size: 115px; font-family: IM_FELL_DW_Pica_Romanz; weight: normal; fill: rgb(0, 0, 128);">
  ?
  </text>

<text text-anchor="middle" 
  transform="translate(178, -301) 
  rotate(315)
  scale(1,1)"
  style="font-size: 115px; font-family: Phosphate; weight: normal; fill: rgb(0, 128, 128);">
  ?
  </text>

<text text-anchor="middle" 
  transform="translate(-178, -136) 
  rotate(315)
  scale(1,1)"
  style="font-size: 115px; font-family: ZubiloLined; weight: normal; fill: rgb(128, 0, 0);">
  ?
  </text>

<text text-anchor="middle" 
  transform="translate(-93, -200) 
  rotate(0)
  scale(1,1)"
  style="font-size: 113px; font-family: Chinchilla; weight: normal; fill: rgb(128, 0, 128);">
  ?
  </text>

<text text-anchor="middle" 
  transform="translate(-246, 163) 
  rotate(0)
  scale(1,1)"
  style="font-size: 113px; font-family: Chalkduster; weight: normal; fill: rgb(0, 0, 128);">
  ?
  </text>

<text text-anchor="middle" 
  transform="translate(-150, -198) 
  rotate(135)
  scale(1,1)"
  style="font-size: 113px; font-family: Shlop; weight: normal; fill: rgb(0, 0, 128);">
  ?
  </text>

<text text-anchor="middle" 
  transform="translate(-91, -300) 
  rotate(0)
  scale(1,1)"
  style="font-size: 112px; font-family: NasalizationRg-Regular; weight: normal; fill: rgb(128, 0, 0);">
  ?
  </text>

<text text-anchor="middle" 
  transform="translate(-137, -254) 
  rotate(270)
  scale(1,1)"
  style="font-size: 112px; font-family: PulpoRust-75; weight: normal; fill: rgb(128, 0, 0);">
  ?
  </text>

<text text-anchor="middle" 
  transform="translate(178, -123) 
  rotate(225)
  scale(1,1)"
  style="font-size: 111px; font-family: Blenny-Black; weight: normal; fill: rgb(128, 0, 128);">
  ?
  </text>

<text text-anchor="middle" 
  transform="translate(-276, -211) 
  rotate(180)
  scale(1,1)"
  style="font-size: 110px; font-family: Shlop; weight: normal; fill: rgb(128, 128, 0);">
  ?
  </text>

<text text-anchor="middle" 
  transform="translate(183, 233) 
  rotate(0)
  scale(1,1)"
  style="font-size: 109px; font-family: PulpoRust-25; weight: normal; fill: rgb(128, 0, 128);">
  ?
  </text>

<text text-anchor="middle" 
  transform="translate(25, 241) 
  rotate(90)
  scale(1,1)"
  style="font-size: 108px; font-family: Alfarn; weight: normal; fill: rgb(128, 128, 0);">
  ?
  </text>

<text text-anchor="middle" 
  transform="translate(-125, 221) 
  rotate(135)
  scale(1,1)"
  style="font-size: 106px; font-family: Chalkduster; weight: normal; fill: rgb(128, 128, 0);">
  ?
  </text>

<text text-anchor="middle" 
  transform="translate(-140, 57) 
  rotate(90)
  scale(1,1)"
  style="font-size: 106px; font-family: ColtSoft-Medium; weight: normal; fill: rgb(128, 0, 128);">
  ?
  </text>

<text text-anchor="middle" 
  transform="translate(-221, 234) 
  rotate(270)
  scale(1,1)"
  style="font-size: 105px; font-family: Calder-LCGrit; weight: normal; fill: rgb(128, 0, 128);">
  ?
  </text>

<text text-anchor="middle" 
  transform="translate(224, -165) 
  rotate(45)
  scale(1,1)"
  style="font-size: 105px; font-family: Chalkduster; weight: normal; fill: rgb(0, 128, 128);">
  ?
  </text>

<text text-anchor="middle" 
  transform="translate(239, -249) 
  rotate(45)
  scale(1,1)"
  style="font-size: 104px; font-family: Decorative; weight: normal; fill: rgb(0, 128, 128);">
  ?
  </text>

<text text-anchor="middle" 
  transform="translate(-206, -123) 
  rotate(225)
  scale(1,1)"
  style="font-size: 104px; font-family: Calder-LCGrit; weight: normal; fill: rgb(128, 128, 0);">
  ?
  </text>

<text text-anchor="middle" 
  transform="translate(184, -359) 
  rotate(90)
  scale(1,1)"
  style="font-size: 102px; font-family: RigSolid; weight: normal; fill: rgb(128, 0, 128);">
  ?
  </text>

<text text-anchor="middle" 
  transform="translate(221, -40) 
  rotate(0)
  scale(1,1)"
  style="font-size: 102px; font-family: Bauhaus93; weight: normal; fill: rgb(0, 0, 128);">
  ?
  </text>

<text text-anchor="middle" 
  transform="translate(116, 53) 
  rotate(0)
  scale(1,1)"
  style="font-size: 101px; font-family: Chalkduster; weight: normal; fill: rgb(0, 0, 128);">
  ?
  </text>

<text text-anchor="middle" 
  transform="translate(-290, -82) 
  rotate(270)
  scale(1,1)"
  style="font-size: 100px; font-family: WTRGothicOpenShaded; weight: normal; fill: rgb(0, 128, 0);">
  ?
  </text>

<text text-anchor="middle" 
  transform="translate(184, 125) 
  rotate(90)
  scale(1,1)"
  style="font-size: 99px; font-family: IM_FELL_DW_Pica_Romanz; weight: normal; fill: rgb(128, 128, 0);">
  ?
  </text>

<text text-anchor="middle" 
  transform="translate(-162, 323) 
  rotate(270)
  scale(1,1)"
  style="font-size: 97px; font-family: ZubiloLined; weight: normal; fill: rgb(128, 0, 128);">
  ?
  </text>

<text text-anchor="middle" 
  transform="translate(323, -235) 
  rotate(45)
  scale(1,1)"
  style="font-size: 95px; font-family: Quast; weight: normal; fill: rgb(128, 0, 128);">
  ?
  </text>

<text text-anchor="middle" 
  transform="translate(43, 156) 
  rotate(0)
  scale(1,1)"
  style="font-size: 94px; font-family: BlowUp; weight: normal; fill: rgb(128, 0, 128);">
  ?
  </text>

<text text-anchor="middle" 
  transform="translate(207, 260) 
  rotate(225)
  scale(1,1)"
  style="font-size: 93px; font-family: PulpoRust-50; weight: normal; fill: rgb(128, 128, 0);">
  ?
  </text>

<text text-anchor="middle" 
  transform="translate(-234, 367) 
  rotate(90)
  scale(1,1)"
  style="font-size: 92px; font-family: PeacockDeep-Bold; weight: normal; fill: rgb(0, 128, 128);">
  ?
  </text>

<text text-anchor="middle" 
  transform="translate(-167, 151) 
  rotate(0)
  scale(1,1)"
  style="font-size: 91px; font-family: PaintingWithChocolate; weight: normal; fill: rgb(128, 128, 0);">
  ?
  </text>

<text text-anchor="middle" 
  transform="translate(212, 320) 
  rotate(225)
  scale(1,1)"
  style="font-size: 89px; font-family: PeacockDeep-Bold; weight: normal; fill: rgb(0, 0, 128);">
  ?
  </text>

<text text-anchor="middle" 
  transform="translate(70, 170) 
  rotate(90)
  scale(1,1)"
  style="font-size: 89px; font-family: Calder-LCGrit; weight: normal; fill: rgb(0, 128, 128);">
  ?
  </text>

<text text-anchor="middle" 
  transform="translate(-295, -294) 
  rotate(135)
  scale(1,1)"
  style="font-size: 88px; font-family: Abolition; weight: normal; fill: rgb(128, 0, 128);">
  ?
  </text>

<text text-anchor="middle" 
  transform="translate(-75, 340) 
  rotate(270)
  scale(1,1)"
  style="font-size: 87px; font-family: ZubiloLined; weight: normal; fill: rgb(128, 128, 0);">
  ?
  </text>

<text text-anchor="middle" 
  transform="translate(187, 55) 
  rotate(0)
  scale(1,1)"
  style="font-size: 86px; font-family: Chuck; weight: normal; fill: rgb(0, 128, 128);">
  ?
  </text>

<text text-anchor="middle" 
  transform="translate(235, -15) 
  rotate(90)
  scale(1,1)"
  style="font-size: 85px; font-family: AcierBATText-Gris; weight: normal; fill: rgb(128, 128, 0);">
  ?
  </text>

<text text-anchor="middle" 
  transform="translate(-281, 8) 
  rotate(270)
  scale(1,1)"
  style="font-size: 83px; font-family: Quast; weight: normal; fill: rgb(128, 0, 128);">
  ?
  </text>

<text text-anchor="middle" 
  transform="translate(-318, -189) 
  rotate(0)
  scale(1,1)"
  style="font-size: 81px; font-family: PeacockDeep-Bold; weight: normal; fill: rgb(128, 0, 0);">
  ?
  </text>

<text text-anchor="middle" 
  transform="translate(-14, 357) 
  rotate(45)
  scale(1,1)"
  style="font-size: 81px; font-family: Victorious; weight: normal; fill: rgb(0, 128, 128);">
  ?
  </text>

<text text-anchor="middle" 
  transform="translate(-310, 110) 
  rotate(180)
  scale(1,1)"
  style="font-size: 81px; font-family: Chalkduster; weight: normal; fill: rgb(128, 0, 0);">
  ?
  </text>

<text text-anchor="middle" 
  transform="translate(-315, -149) 
  rotate(270)
  scale(1,1)"
  style="font-size: 81px; font-family: AdornCopperplate; weight: normal; fill: rgb(0, 0, 128);">
  ?
  </text>

<text text-anchor="middle" 
  transform="translate(-30, -101) 
  rotate(270)
  scale(1,1)"
  style="font-size: 80px; font-family: JohnDoe; weight: normal; fill: rgb(0, 128, 128);">
  ?
  </text>

<text text-anchor="middle" 
  transform="translate(-85, 388) 
  rotate(135)
  scale(1,1)"
  style="font-size: 77px; font-family: Phosphate; weight: normal; fill: rgb(0, 128, 0);">
  ?
  </text>

<text text-anchor="middle" 
  transform="translate(51, -71) 
  rotate(270)
  scale(1,1)"
  style="font-size: 77px; font-family: PeacockDeep-Bold; weight: normal; fill: rgb(128, 128, 0);">
  ?
  </text>

<text text-anchor="middle" 
  transform="translate(103, -152) 
  rotate(90)
  scale(1,1)"
  style="font-size: 72px; font-family: Abolition; weight: normal; fill: rgb(0, 128, 128);">
  ?
  </text>

<text text-anchor="middle" 
  transform="translate(237, 74) 
  rotate(90)
  scale(1,1)"
  style="font-size: 72px; font-family: Quast; weight: normal; fill: rgb(0, 128, 128);">
  ?
  </text>

<text text-anchor="middle" 
  transform="translate(-163, -291) 
  rotate(45)
  scale(1,1)"
  style="font-size: 72px; font-family: AcierBATText-Gris; weight: normal; fill: rgb(0, 128, 128);">
  ?
  </text>

<text text-anchor="middle" 
  transform="translate(138, -258) 
  rotate(315)
  scale(1,1)"
  style="font-size: 69px; font-family: WTRGothicOpenShaded; weight: normal; fill: rgb(0, 128, 0);">
  ?
  </text>

<text text-anchor="middle" 
  transform="translate(-17, -178) 
  rotate(270)
  scale(1,1)"
  style="font-size: 67px; font-family: Bauhaus93; weight: normal; fill: rgb(0, 128, 0);">
  ?
  </text>

<text text-anchor="middle" 
  transform="translate(302, -92) 
  rotate(315)
  scale(1,1)"
  style="font-size: 66px; font-family: blzee; weight: normal; fill: rgb(0, 128, 0);">
  ?
  </text>

<text text-anchor="middle" 
  transform="translate(90, 312) 
  rotate(45)
  scale(1,1)"
  style="font-size: 65px; font-family: ZubiloLined; weight: normal; fill: rgb(0, 0, 128);">
  ?
  </text>

<text text-anchor="middle" 
  transform="translate(146, 85) 
  rotate(180)
  scale(1,1)"
  style="font-size: 63px; font-family: Alfarn; weight: normal; fill: rgb(0, 0, 128);">
  ?
  </text>

<text text-anchor="middle" 
  transform="translate(305, -147) 
  rotate(45)
  scale(1,1)"
  style="font-size: 61px; font-family: PulpoRust-50; weight: normal; fill: rgb(0, 0, 128);">
  ?
  </text>

<text text-anchor="middle" 
  transform="translate(219, 214) 
  rotate(45)
  scale(1,1)"
  style="font-size: 61px; font-family: blzee; weight: normal; fill: rgb(128, 0, 128);">
  ?
  </text>

<text text-anchor="middle" 
  transform="translate(-32, 274) 
  rotate(45)
  scale(1,1)"
  style="font-size: 59px; font-family: PulpoRust-75; weight: normal; fill: rgb(0, 0, 128);">
  ?
  </text>

<text text-anchor="middle" 
  transform="translate(116, 334) 
  rotate(225)
  scale(1,1)"
  style="font-size: 58px; font-family: PulpoRust-75; weight: normal; fill: rgb(128, 0, 0);">
  ?
  </text>

<text text-anchor="middle" 
  transform="translate(-195, -333) 
  rotate(225)
  scale(1,1)"
  style="font-size: 58px; font-family: AdornCopperplate; weight: normal; fill: rgb(128, 128, 0);">
  ?
  </text>

<text text-anchor="middle" 
  transform="translate(-10, -364) 
  rotate(225)
  scale(1,1)"
  style="font-size: 58px; font-family: ColtSoft-Medium; weight: normal; fill: rgb(128, 0, 128);">
  ?
  </text>

<text text-anchor="middle" 
  transform="translate(291, -60) 
  rotate(90)
  scale(1,1)"
  style="font-size: 58px; font-family: ZubiloLined; weight: normal; fill: rgb(0, 128, 0);">
  ?
  </text>

<text text-anchor="middle" 
  transform="translate(78, -71) 
  rotate(0)
  scale(1,1)"
  style="font-size: 57px; font-family: NasalizationRg-Regular; weight: normal; fill: rgb(128, 0, 0);">
  ?
  </text>

<text text-anchor="middle" 
  transform="translate(-143, -366) 
  rotate(270)
  scale(1,1)"
  style="font-size: 56px; font-family: RigSolid; weight: normal; fill: rgb(0, 0, 128);">
  ?
  </text>

<text text-anchor="middle" 
  transform="translate(142, 248) 
  rotate(0)
  scale(1,1)"
  style="font-size: 54px; font-family: NasalizationRg-Regular; weight: normal; fill: rgb(0, 128, 0);">
  ?
  </text>

<text text-anchor="middle" 
  transform="translate(343, -221) 
  rotate(135)
  scale(1,1)"
  style="font-size: 52px; font-family: PulpoRust-50; weight: normal; fill: rgb(128, 0, 0);">
  ?
  </text>

<text text-anchor="middle" 
  transform="translate(79, 415) 
  rotate(315)
  scale(1,1)"
  style="font-size: 52px; font-family: Bauhaus93; weight: normal; fill: rgb(0, 128, 0);">
  ?
  </text>

<text text-anchor="middle" 
  transform="translate(10, 181) 
  rotate(0)
  scale(1,1)"
  style="font-size: 51px; font-family: Chinchilla; weight: normal; fill: rgb(128, 0, 0);">
  ?
  </text>

<text text-anchor="middle" 
  transform="translate(-47, -441) 
  rotate(135)
  scale(1,1)"
  style="font-size: 51px; font-family: Victorious; weight: normal; fill: rgb(0, 0, 128);">
  ?
  </text>

<text text-anchor="middle" 
  transform="translate(163, 404) 
  rotate(225)
  scale(1,1)"
  style="font-size: 46px; font-family: Blenny-Black; weight: normal; fill: rgb(128, 128, 0);">
  ?
  </text>

<text text-anchor="middle" 
  transform="translate(83, -399) 
  rotate(135)
  scale(1,1)"
  style="font-size: 43px; font-family: Abolition; weight: normal; fill: rgb(128, 128, 0);">
  ?
  </text>

<text text-anchor="middle" 
  transform="translate(239, 256) 
  rotate(180)
  scale(1,1)"
  style="font-size: 42px; font-family: PulpoRust-75; weight: normal; fill: rgb(0, 0, 128);">
  ?
  </text>

<text text-anchor="middle" 
  transform="translate(-162, 446) 
  rotate(45)
  scale(1,1)"
  style="font-size: 41px; font-family: Chalkduster; weight: normal; fill: rgb(128, 0, 0);">
  ?
  </text>

<text text-anchor="middle" 
  transform="translate(64, -439) 
  rotate(225)
  scale(1,1)"
  style="font-size: 40px; font-family: ZubiloLined; weight: normal; fill: rgb(0, 0, 128);">
  ?
  </text>

<text text-anchor="middle" 
  transform="translate(72, -148) 
  rotate(0)
  scale(1,1)"
  style="font-size: 40px; font-family: PaintingWithChocolate; weight: normal; fill: rgb(0, 128, 128);">
  ?
  </text>

<text text-anchor="middle" 
  transform="translate(299, 146) 
  rotate(225)
  scale(1,1)"
  style="font-size: 40px; font-family: ZubiloLined; weight: normal; fill: rgb(0, 128, 0);">
  ?
  </text>

<text text-anchor="middle" 
  transform="translate(143, -401) 
  rotate(135)
  scale(1,1)"
  style="font-size: 37px; font-family: Phosphate; weight: normal; fill: rgb(0, 0, 128);">
  ?
  </text>

<text text-anchor="middle" 
  transform="translate(-327, 221) 
  rotate(315)
  scale(1,1)"
  style="font-size: 37px; font-family: Calder-LCGrit; weight: normal; fill: rgb(0, 0, 128);">
  ?
  </text>

<text text-anchor="middle" 
  transform="translate(-137, 158) 
  rotate(135)
  scale(1,1)"
  style="font-size: 36px; font-family: JohnDoe; weight: normal; fill: rgb(0, 128, 0);">
  ?
  </text>

<text text-anchor="middle" 
  transform="translate(180, -418) 
  rotate(135)
  scale(1,1)"
  style="font-size: 35px; font-family: PaintingWithChocolate; weight: normal; fill: rgb(128, 128, 0);">
  ?
  </text>

<text text-anchor="middle" 
  transform="translate(171, -41) 
  rotate(45)
  scale(1,1)"
  style="font-size: 35px; font-family: JohnDoe; weight: normal; fill: rgb(0, 128, 0);">
  ?
  </text>

<text text-anchor="middle" 
  transform="translate(178, 91) 
  rotate(90)
  scale(1,1)"
  style="font-size: 34px; font-family: Blenny-Black; weight: normal; fill: rgb(0, 128, 128);">
  ?
  </text>

<text text-anchor="middle" 
  transform="translate(329, 28) 
  rotate(0)
  scale(1,1)"
  style="font-size: 34px; font-family: Alfarn; weight: normal; fill: rgb(128, 128, 0);">
  ?
  </text>

<text text-anchor="middle" 
  transform="translate(98, -429) 
  rotate(90)
  scale(1,1)"
  style="font-size: 31px; font-family: ZubiloLined; weight: normal; fill: rgb(128, 0, 128);">
  ?
  </text>

<text text-anchor="middle" 
  transform="translate(-132, -402) 
  rotate(0)
  scale(1,1)"
  style="font-size: 29px; font-family: AcierBATText-Gris; weight: normal; fill: rgb(0, 128, 0);">
  ?
  </text>

<text text-anchor="middle" 
  transform="translate(334, -106) 
  rotate(315)
  scale(1,1)"
  style="font-size: 28px; font-family: Bauhaus93; weight: normal; fill: rgb(0, 128, 128);">
  ?
  </text>

<text text-anchor="middle" 
  transform="translate(93, 106) 
  rotate(135)
  scale(1,1)"
  style="font-size: 28px; font-family: P22Stanyan; weight: normal; fill: rgb(0, 128, 128);">
  ?
  </text>

<text text-anchor="middle" 
  transform="translate(-233, 268) 
  rotate(225)
  scale(1,1)"
  style="font-size: 27px; font-family: Chuck; weight: normal; fill: rgb(0, 128, 0);">
  ?
  </text>

<text text-anchor="middle" 
  transform="translate(1, 17) 
  rotate(315)
  scale(1,1)"
  style="font-size: 27px; font-family: Chuck; weight: normal; fill: rgb(0, 128, 0);">
  ?
  </text>

<text text-anchor="middle" 
  transform="translate(-130, 21) 
  rotate(90)
  scale(1,1)"
  style="font-size: 26px; font-family: ColtSoft-Medium; weight: normal; fill: rgb(0, 128, 128);">
  ?
  </text>

<text text-anchor="middle" 
  transform="translate(124, 375) 
  rotate(135)
  scale(1,1)"
  style="font-size: 26px; font-family: Bauhaus93; weight: normal; fill: rgb(0, 128, 0);">
  ?
  </text>

<text text-anchor="middle" 
  transform="translate(-138, -126) 
  rotate(135)
  scale(1,1)"
  style="font-size: 25px; font-family: AcierBATText-Gris; weight: normal; fill: rgb(128, 128, 0);">
  ?
  </text>

</g>
</svg>
